<?xml version="1.0" encoding="utf-8" standalone="no"?>
<!DOCTYPE svg PUBLIC "-//W3C//DTD SVG 1.1//EN"
  "http://www.w3.org/Graphics/SVG/1.1/DTD/svg11.dtd">
<!-- Created with matplotlib (http://matplotlib.org/) -->
<svg height="467.905pt" version="1.1" viewBox="0 0 891.9 467.905" width="891.9pt" xmlns="http://www.w3.org/2000/svg" xmlns:xlink="http://www.w3.org/1999/xlink">
 <defs>
  <style type="text/css">
*{stroke-linecap:butt;stroke-linejoin:round;}
  </style>
 </defs>
 <g id="figure_1">
  <g id="patch_1">
   <path d="M 0 467.905 
L 891.9 467.905 
L 891.9 0 
L 0 0 
z
" style="fill:none;"/>
  </g>
  <g id="axes_1">
   <g id="patch_2">
    <path d="M 44.2 445.58 
L 881.2 445.58 
L 881.2 10.7 
L 44.2 10.7 
z
" style="fill:#ffffff;"/>
   </g>
   <g id="patch_3">
    <path clip-path="url(#pbdb27f575e)" d="M 44.2 425.812727 
L 82.311825 425.812727 
L 82.311825 393.539629 
L 44.2 393.539629 
z
" style="fill:#1f77b4;"/>
   </g>
   <g id="patch_4">
    <path clip-path="url(#pbdb27f575e)" d="M 44.2 385.471354 
L 119.942594 385.471354 
L 119.942594 353.198256 
L 44.2 353.198256 
z
" style="fill:#1f77b4;"/>
   </g>
   <g id="patch_5">
    <path clip-path="url(#pbdb27f575e)" d="M 44.2 345.129981 
L 121.780351 345.129981 
L 121.780351 312.856883 
L 44.2 312.856883 
z
" style="fill:#1f77b4;"/>
   </g>
   <g id="patch_6">
    <path clip-path="url(#pbdb27f575e)" d="M 44.2 304.788609 
L 179.639015 304.788609 
L 179.639015 272.51551 
L 44.2 272.51551 
z
" style="fill:#1f77b4;"/>
   </g>
   <g id="patch_7">
    <path clip-path="url(#pbdb27f575e)" d="M 44.2 264.447236 
L 202.430964 264.447236 
L 202.430964 232.174137 
L 44.2 232.174137 
z
" style="fill:#1f77b4;"/>
   </g>
   <g id="patch_8">
    <path clip-path="url(#pbdb27f575e)" d="M 44.2 224.105863 
L 335.842002 224.105863 
L 335.842002 191.832764 
L 44.2 191.832764 
z
" style="fill:#1f77b4;"/>
   </g>
   <g id="patch_9">
    <path clip-path="url(#pbdb27f575e)" d="M 44.2 183.76449 
L 403.37679 183.76449 
L 403.37679 151.491391 
L 44.2 151.491391 
z
" style="fill:#1f77b4;"/>
   </g>
   <g id="patch_10">
    <path clip-path="url(#pbdb27f575e)" d="M 44.2 143.423117 
L 419.522005 143.423117 
L 419.522005 111.150019 
L 44.2 111.150019 
z
" style="fill:#1f77b4;"/>
   </g>
   <g id="patch_11">
    <path clip-path="url(#pbdb27f575e)" d="M 44.2 103.081744 
L 631.764765 103.081744 
L 631.764765 70.808646 
L 44.2 70.808646 
z
" style="fill:#1f77b4;"/>
   </g>
   <g id="patch_12">
    <path clip-path="url(#pbdb27f575e)" d="M 44.2 62.740371 
L 841.342857 62.740371 
L 841.342857 30.467273 
L 44.2 30.467273 
z
" style="fill:#1f77b4;"/>
   </g>
   <g id="matplotlib.axis_1">
    <g id="xtick_1">
     <g id="line2d_1">
      <defs>
       <path d="M 0 0 
L 0 3.5 
" id="m7da2eb7cfa" style="stroke:#000000;stroke-width:0.8;"/>
      </defs>
      <g>
       <use style="stroke:#000000;stroke-width:0.8;" x="44.2" xlink:href="#m7da2eb7cfa" y="445.58"/>
      </g>
     </g>
     <g id="text_1">
      <!-- 0 -->
      <defs>
       <path d="M 3.125 29.296875 
Q 3.90625 50 6.4375 56.046875 
Q 8.984375 62.109375 13.671875 66.015625 
Q 18.359375 69.921875 25.1875 69.921875 
Q 32.03125 69.921875 37.109375 64.25 
Q 42.1875 58.59375 43.75 50 
Q 45.3125 41.40625 44.71875 30.265625 
Q 44.140625 19.140625 40.8125 12.109375 
Q 37.5 5.078125 30.859375 2.34375 
Q 24.21875 -0.390625 17.578125 2.921875 
Q 10.9375 6.25 8.203125 11.71875 
Q 5.46875 17.1875 4.296875 23.234375 
Q 3.125 29.296875 3.90625 50 
z
M 12.890625 52.734375 
Q 10.546875 31.25 12.5 22.84375 
Q 14.453125 14.453125 18.9375 10.9375 
Q 23.4375 7.421875 28.125 9.5625 
Q 32.8125 11.71875 34.953125 18.15625 
Q 37.109375 24.609375 37.109375 32.21875 
Q 37.109375 39.84375 36.515625 46.09375 
Q 35.9375 52.34375 33 57.421875 
Q 30.078125 62.5 25.1875 62.6875 
Q 20.3125 62.890625 16.59375 57.8125 
Q 12.890625 52.734375 10.546875 31.25 
z
" id="SimHei-30"/>
      </defs>
      <g transform="translate(41.7 459.455)scale(0.1 -0.1)">
       <use xlink:href="#SimHei-30"/>
      </g>
     </g>
    </g>
    <g id="xtick_2">
     <g id="line2d_2">
      <g>
       <use style="stroke:#000000;stroke-width:0.8;" x="201.407543" xlink:href="#m7da2eb7cfa" y="445.58"/>
      </g>
     </g>
     <g id="text_2">
      <!-- 100000 -->
      <defs>
       <path d="M 21.875 56.25 
Q 16.796875 51.171875 8.984375 46.484375 
L 8.984375 53.90625 
Q 18.75 60.546875 25 69.53125 
L 29.6875 69.53125 
L 29.6875 2.34375 
L 21.875 2.34375 
z
" id="SimHei-31"/>
      </defs>
      <g transform="translate(186.407543 459.455)scale(0.1 -0.1)">
       <use xlink:href="#SimHei-31"/>
       <use x="50" xlink:href="#SimHei-30"/>
       <use x="100" xlink:href="#SimHei-30"/>
       <use x="150" xlink:href="#SimHei-30"/>
       <use x="200" xlink:href="#SimHei-30"/>
       <use x="250" xlink:href="#SimHei-30"/>
      </g>
     </g>
    </g>
    <g id="xtick_3">
     <g id="line2d_3">
      <g>
       <use style="stroke:#000000;stroke-width:0.8;" x="358.615087" xlink:href="#m7da2eb7cfa" y="445.58"/>
      </g>
     </g>
     <g id="text_3">
      <!-- 200000 -->
      <defs>
       <path d="M 4.6875 3.90625 
Q 5.078125 9.765625 10.15625 14.453125 
Q 15.234375 19.140625 23.046875 29.09375 
Q 30.859375 39.0625 33.203125 44.53125 
Q 35.546875 50 34.953125 53.90625 
Q 34.375 57.8125 31.25 60.34375 
Q 28.125 62.890625 24.015625 62.5 
Q 19.921875 62.109375 16.203125 59.375 
Q 12.5 56.640625 10.546875 51.171875 
L 3.125 52.34375 
Q 6.25 61.328125 11.125 65.421875 
Q 16.015625 69.53125 22.65625 69.921875 
Q 26.5625 70.3125 29.6875 69.71875 
Q 32.8125 69.140625 36.125 66.984375 
Q 39.453125 64.84375 41.59375 60.546875 
Q 43.75 56.25 43.15625 50.1875 
Q 42.578125 44.140625 37.109375 35.734375 
Q 31.640625 27.34375 16.015625 9.375 
L 44.140625 9.375 
L 44.140625 2.34375 
L 4.6875 2.34375 
z
" id="SimHei-32"/>
      </defs>
      <g transform="translate(343.615087 459.455)scale(0.1 -0.1)">
       <use xlink:href="#SimHei-32"/>
       <use x="50" xlink:href="#SimHei-30"/>
       <use x="100" xlink:href="#SimHei-30"/>
       <use x="150" xlink:href="#SimHei-30"/>
       <use x="200" xlink:href="#SimHei-30"/>
       <use x="250" xlink:href="#SimHei-30"/>
      </g>
     </g>
    </g>
    <g id="xtick_4">
     <g id="line2d_4">
      <g>
       <use style="stroke:#000000;stroke-width:0.8;" x="515.82263" xlink:href="#m7da2eb7cfa" y="445.58"/>
      </g>
     </g>
     <g id="text_4">
      <!-- 300000 -->
      <defs>
       <path d="M 3.90625 19.140625 
L 10.9375 20.3125 
Q 12.5 15.234375 16.015625 11.90625 
Q 19.53125 8.59375 24.796875 8.78125 
Q 30.078125 8.984375 33.203125 13.078125 
Q 36.328125 17.1875 35.9375 22.453125 
Q 35.546875 27.734375 31.828125 30.65625 
Q 28.125 33.59375 19.921875 34.765625 
L 19.921875 39.84375 
Q 28.125 40.625 31.828125 44.140625 
Q 35.546875 47.65625 35.15625 53.3125 
Q 34.765625 58.984375 30.078125 61.515625 
Q 25.390625 64.0625 20.109375 62.109375 
Q 14.84375 60.15625 11.71875 51.171875 
L 4.6875 52.34375 
Q 7.03125 59.375 11.125 64.0625 
Q 15.234375 68.75 22.265625 69.53125 
Q 29.296875 70.3125 34.5625 67.765625 
Q 39.84375 65.234375 41.984375 59.953125 
Q 44.140625 54.6875 42.578125 48.4375 
Q 41.015625 42.1875 33.59375 37.5 
Q 39.0625 35.15625 41.984375 30.46875 
Q 44.921875 25.78125 43.9375 18.15625 
Q 42.96875 10.546875 37.109375 5.859375 
Q 31.25 1.171875 23.828125 1.359375 
Q 16.40625 1.5625 10.9375 6.046875 
Q 5.46875 10.546875 3.90625 19.140625 
z
" id="SimHei-33"/>
      </defs>
      <g transform="translate(500.82263 459.455)scale(0.1 -0.1)">
       <use xlink:href="#SimHei-33"/>
       <use x="50" xlink:href="#SimHei-30"/>
       <use x="100" xlink:href="#SimHei-30"/>
       <use x="150" xlink:href="#SimHei-30"/>
       <use x="200" xlink:href="#SimHei-30"/>
       <use x="250" xlink:href="#SimHei-30"/>
      </g>
     </g>
    </g>
    <g id="xtick_5">
     <g id="line2d_5">
      <g>
       <use style="stroke:#000000;stroke-width:0.8;" x="673.030173" xlink:href="#m7da2eb7cfa" y="445.58"/>
      </g>
     </g>
     <g id="text_5">
      <!-- 400000 -->
      <defs>
       <path d="M 31.25 17.1875 
L 1.171875 17.1875 
L 1.171875 23.828125 
L 32.8125 69.53125 
L 38.671875 69.53125 
L 38.671875 23.828125 
L 48.046875 23.828125 
L 48.046875 17.1875 
L 38.671875 17.1875 
L 38.671875 2.34375 
L 31.25 2.34375 
z
M 31.25 23.828125 
L 31.25 54.6875 
L 9.375 23.828125 
z
" id="SimHei-34"/>
      </defs>
      <g transform="translate(658.030173 459.455)scale(0.1 -0.1)">
       <use xlink:href="#SimHei-34"/>
       <use x="50" xlink:href="#SimHei-30"/>
       <use x="100" xlink:href="#SimHei-30"/>
       <use x="150" xlink:href="#SimHei-30"/>
       <use x="200" xlink:href="#SimHei-30"/>
       <use x="250" xlink:href="#SimHei-30"/>
      </g>
     </g>
    </g>
    <g id="xtick_6">
     <g id="line2d_6">
      <g>
       <use style="stroke:#000000;stroke-width:0.8;" x="830.237716" xlink:href="#m7da2eb7cfa" y="445.58"/>
      </g>
     </g>
     <g id="text_6">
      <!-- 500000 -->
      <defs>
       <path d="M 8.59375 20.703125 
Q 11.328125 10.15625 17.96875 8.984375 
Q 24.609375 7.8125 28.703125 10.34375 
Q 32.8125 12.890625 34.5625 16.984375 
Q 36.328125 21.09375 36.125 26.171875 
Q 35.9375 31.25 33.390625 34.765625 
Q 30.859375 38.28125 26.953125 39.453125 
Q 23.046875 40.625 18.15625 39.453125 
Q 13.28125 38.28125 10.15625 33.984375 
L 3.515625 34.765625 
Q 4.296875 37.109375 10.9375 68.359375 
L 41.796875 68.359375 
L 41.796875 61.328125 
L 16.796875 61.328125 
Q 14.84375 50.78125 12.890625 44.53125 
Q 18.75 47.265625 23.828125 47.0625 
Q 28.90625 46.875 33.59375 44.71875 
Q 38.28125 42.578125 40.421875 38.859375 
Q 42.578125 35.15625 43.546875 31.4375 
Q 44.53125 27.734375 44.328125 23.4375 
Q 44.140625 19.140625 42.578125 14.640625 
Q 41.015625 10.15625 37.890625 7.21875 
Q 34.765625 4.296875 30.265625 2.53125 
Q 25.78125 0.78125 19.921875 1.171875 
Q 14.0625 1.5625 8.78125 5.46875 
Q 3.515625 9.375 1.5625 18.75 
z
" id="SimHei-35"/>
      </defs>
      <g transform="translate(815.237716 459.455)scale(0.1 -0.1)">
       <use xlink:href="#SimHei-35"/>
       <use x="50" xlink:href="#SimHei-30"/>
       <use x="100" xlink:href="#SimHei-30"/>
       <use x="150" xlink:href="#SimHei-30"/>
       <use x="200" xlink:href="#SimHei-30"/>
       <use x="250" xlink:href="#SimHei-30"/>
      </g>
     </g>
    </g>
   </g>
   <g id="matplotlib.axis_2">
    <g id="ytick_1">
     <g id="line2d_7">
      <defs>
       <path d="M 0 0 
L -3.5 0 
" id="ma2b292b6d4" style="stroke:#000000;stroke-width:0.8;"/>
      </defs>
      <g>
       <use style="stroke:#000000;stroke-width:0.8;" x="44.2" xlink:href="#ma2b292b6d4" y="409.676178"/>
      </g>
     </g>
     <g id="text_7">
      <!-- 黄梦莹 -->
      <defs>
       <path d="M 42.1875 5.46875 
Q 37.890625 3.515625 28.703125 -1.953125 
Q 19.53125 -7.421875 14.0625 -10.546875 
L 8.203125 -4.6875 
Q 17.1875 -1.171875 23.046875 2.53125 
Q 28.90625 6.25 34.375 10.546875 
L 17.1875 10.546875 
Q 17.578125 14.0625 17.96875 21.875 
L 17.96875 33.984375 
Q 17.96875 38.28125 17.578125 43.75 
L 46.875 43.75 
L 46.875 50.78125 
L 19.53125 50.78125 
Q 10.546875 50.78125 4.296875 50.390625 
L 4.296875 57.03125 
Q 10.15625 56.640625 19.140625 56.640625 
L 33.203125 56.640625 
L 33.203125 67.1875 
L 23.828125 67.1875 
Q 16.40625 67.1875 11.328125 66.796875 
L 11.328125 73.4375 
Q 15.625 73.046875 23.046875 73.046875 
L 33.203125 73.046875 
Q 33.203125 77.734375 32.8125 82.03125 
L 41.40625 82.03125 
Q 40.625 77.734375 40.625 73.046875 
L 62.109375 73.046875 
Q 62.109375 77.734375 61.71875 82.03125 
L 69.921875 82.03125 
Q 69.53125 77.34375 69.53125 73.046875 
L 77.34375 73.046875 
Q 84.765625 73.046875 90.625 73.4375 
L 90.625 66.796875 
Q 85.15625 67.1875 77.734375 67.1875 
L 69.53125 67.1875 
L 69.53125 56.640625 
L 81.640625 56.640625 
Q 89.84375 56.640625 96.484375 57.03125 
L 96.484375 50.390625 
Q 90.234375 50.78125 82.03125 50.78125 
L 54.296875 50.78125 
L 54.296875 43.75 
L 83.59375 43.75 
Q 83.203125 37.890625 83.203125 34.375 
L 83.203125 21.875 
Q 83.203125 14.84375 83.59375 10.546875 
L 67.96875 10.546875 
Q 72.65625 7.8125 80.078125 3.515625 
Q 87.890625 -0.78125 94.140625 -4.296875 
Q 91.015625 -7.421875 88.671875 -10.546875 
Q 80.46875 -5.078125 74.796875 -1.75 
Q 69.140625 1.5625 62.5 4.6875 
Q 64.453125 6.640625 66.796875 10.546875 
L 35.9375 10.546875 
Q 39.453125 7.421875 42.1875 5.46875 
z
M 62.109375 56.640625 
L 62.109375 67.1875 
L 40.625 67.1875 
L 40.625 56.640625 
z
M 76.171875 16.40625 
L 76.171875 24.21875 
L 54.296875 24.21875 
L 54.296875 16.40625 
z
M 46.875 16.40625 
L 46.875 24.21875 
L 25.390625 24.21875 
L 25.390625 16.40625 
z
M 76.171875 30.078125 
L 76.171875 37.5 
L 54.296875 37.5 
L 54.296875 30.078125 
z
M 46.875 30.078125 
L 46.875 37.5 
L 25.390625 37.5 
L 25.390625 30.078125 
z
" id="SimHei-9ec4"/>
       <path d="M 46.875 35.9375 
Q 44.921875 33.984375 42.1875 30.859375 
L 83.59375 30.859375 
Q 80.078125 23.828125 75.96875 17.375 
Q 71.875 10.9375 64.640625 5.078125 
Q 57.421875 -0.78125 45.890625 -4.484375 
Q 34.375 -8.203125 14.0625 -10.15625 
Q 12.5 -4.6875 9.765625 -1.953125 
Q 17.1875 -2.34375 29.296875 -0.78125 
Q 41.40625 0.78125 50.390625 4.6875 
Q 43.359375 11.71875 36.71875 16.015625 
Q 39.0625 17.578125 41.40625 21.484375 
Q 52.734375 12.5 57.8125 8.59375 
Q 61.71875 11.328125 65.03125 15.03125 
Q 68.359375 18.75 71.875 25 
L 37.109375 25 
Q 31.640625 19.140625 19.140625 10.15625 
Q 17.1875 13.28125 13.28125 16.015625 
Q 21.484375 19.921875 28.125 26.171875 
Q 34.765625 32.421875 39.453125 40.625 
Q 43.75 37.5 46.875 35.9375 
z
M 50.78125 69.140625 
Q 56.25 68.75 60.9375 68.75 
L 66.015625 68.75 
L 66.015625 74.21875 
Q 66.015625 76.953125 65.625 80.859375 
L 73.828125 80.859375 
Q 73.046875 77.34375 73.046875 74.609375 
L 73.046875 68.75 
L 83.59375 68.75 
Q 89.0625 68.75 92.1875 69.140625 
L 92.1875 62.5 
Q 89.0625 62.890625 83.984375 62.890625 
L 76.5625 62.890625 
Q 79.6875 57.421875 85.15625 52.140625 
Q 90.625 46.875 95.703125 43.75 
Q 92.578125 41.40625 90.234375 38.28125 
Q 83.59375 44.140625 79.6875 48.625 
Q 75.78125 53.125 73.046875 57.421875 
L 73.046875 49.609375 
Q 73.046875 43.359375 73.828125 34.765625 
L 65.625 34.765625 
Q 66.015625 41.796875 66.015625 49.609375 
L 66.015625 54.296875 
Q 63.28125 50 59.953125 46.28125 
Q 56.640625 42.578125 50.78125 37.109375 
Q 49.21875 39.453125 45.3125 42.1875 
Q 49.609375 44.921875 54.875 50.578125 
Q 60.15625 56.25 63.671875 62.890625 
L 61.328125 62.890625 
Q 56.25 62.890625 50.78125 62.5 
L 50.78125 69.140625 
z
M 47.265625 62.5 
Q 43.359375 62.890625 37.109375 62.890625 
L 32.421875 62.890625 
L 32.421875 50.390625 
Q 32.421875 43.75 32.8125 35.9375 
L 25 35.9375 
Q 25.390625 42.96875 25.390625 50.390625 
L 25.390625 56.640625 
Q 23.828125 52.34375 20.5 48.046875 
Q 17.1875 43.75 10.9375 37.5 
Q 8.203125 41.015625 4.6875 42.96875 
Q 8.984375 45.703125 13.671875 50.578125 
Q 18.359375 55.46875 21.875 62.890625 
L 18.359375 62.890625 
Q 12.5 62.890625 7.421875 62.5 
L 7.421875 69.140625 
Q 12.5 68.75 18.359375 68.75 
L 25.390625 68.75 
L 25.390625 75 
Q 25.390625 77.734375 25 80.859375 
L 32.8125 80.859375 
Q 32.421875 77.734375 32.421875 75 
L 32.421875 68.75 
L 37.109375 68.75 
Q 43.359375 68.75 47.265625 69.140625 
z
M 47.65625 49.609375 
Q 45.3125 47.65625 42.578125 44.53125 
Q 38.28125 50 33.203125 54.296875 
Q 36.328125 57.421875 37.5 58.984375 
Q 39.453125 57.421875 47.65625 49.609375 
z
" id="SimHei-68a6"/>
       <path d="M 64.84375 39.453125 
Q 71.484375 39.453125 78.515625 39.84375 
L 78.515625 32.8125 
Q 72.265625 33.203125 65.234375 33.203125 
L 53.90625 33.203125 
L 53.90625 22.265625 
L 69.53125 22.265625 
Q 75 22.265625 81.640625 22.65625 
L 81.640625 15.625 
Q 75.390625 16.015625 69.921875 16.015625 
L 53.90625 16.015625 
L 53.90625 1.5625 
L 78.125 1.5625 
Q 85.546875 1.5625 92.1875 1.953125 
L 92.1875 -5.078125 
Q 85.546875 -4.6875 78.515625 -4.6875 
L 23.046875 -4.6875 
Q 14.84375 -4.6875 8.203125 -5.078125 
L 8.203125 1.953125 
Q 14.84375 1.5625 23.046875 1.5625 
L 45.703125 1.5625 
L 45.703125 16.015625 
L 32.421875 16.015625 
Q 24.609375 16.015625 18.75 15.625 
L 18.75 22.65625 
Q 24.609375 22.265625 32.421875 22.265625 
L 45.703125 22.265625 
L 45.703125 33.203125 
L 35.9375 33.203125 
Q 28.125 33.203125 21.09375 32.8125 
L 21.09375 39.84375 
Q 27.734375 39.453125 35.15625 39.453125 
z
M 40.234375 79.6875 
Q 39.84375 75.78125 39.84375 70.3125 
L 61.71875 70.3125 
Q 61.71875 75.390625 61.328125 80.078125 
L 69.921875 80.078125 
Q 69.53125 75.390625 69.53125 70.3125 
L 79.296875 70.3125 
Q 88.28125 70.3125 94.53125 70.703125 
L 94.53125 63.28125 
Q 88.671875 63.671875 79.296875 63.671875 
L 69.53125 63.671875 
Q 69.53125 60.9375 69.921875 56.640625 
L 61.71875 56.640625 
L 61.71875 63.671875 
L 39.84375 63.671875 
L 39.84375 56.640625 
L 31.640625 56.640625 
Q 32.03125 60.9375 32.03125 63.671875 
L 22.265625 63.671875 
Q 13.28125 63.671875 4.6875 63.28125 
L 4.6875 70.703125 
Q 13.28125 70.3125 22.265625 70.3125 
L 32.03125 70.3125 
Q 32.03125 75.390625 31.640625 79.6875 
L 40.234375 79.6875 
z
M 84.765625 36.328125 
L 84.765625 46.875 
L 14.84375 46.875 
L 14.84375 34.765625 
L 7.03125 34.765625 
Q 7.03125 38.28125 7.21875 42.765625 
Q 7.421875 47.265625 7.03125 53.125 
L 92.578125 53.125 
Q 92.1875 48.828125 92.375 44.71875 
Q 92.578125 40.625 92.578125 36.328125 
z
M 70.703125 2.34375 
Q 67.1875 5.46875 61.328125 10.15625 
Q 63.671875 12.109375 66.796875 14.84375 
Q 72.65625 10.15625 76.171875 7.421875 
Q 73.046875 5.078125 70.703125 2.34375 
z
" id="SimHei-83b9"/>
      </defs>
      <g transform="translate(7.2 413.680084)scale(0.1 -0.1)">
       <use xlink:href="#SimHei-9ec4"/>
       <use x="100" xlink:href="#SimHei-68a6"/>
       <use x="200" xlink:href="#SimHei-83b9"/>
      </g>
     </g>
    </g>
    <g id="ytick_2">
     <g id="line2d_8">
      <g>
       <use style="stroke:#000000;stroke-width:0.8;" x="44.2" xlink:href="#ma2b292b6d4" y="369.334805"/>
      </g>
     </g>
     <g id="text_8">
      <!-- 娄艺潇 -->
      <defs>
       <path d="M 49.21875 36.328125 
Q 45.703125 32.421875 43.75 29.296875 
L 81.640625 29.296875 
Q 88.28125 29.296875 95.703125 29.6875 
L 95.703125 22.65625 
Q 88.28125 23.046875 81.640625 23.046875 
L 73.046875 23.046875 
Q 69.921875 18.359375 67.765625 15.421875 
Q 65.625 12.5 62.5 8.984375 
Q 67.578125 7.8125 74.21875 5.65625 
Q 80.859375 3.515625 90.234375 0.78125 
Q 87.109375 -2.734375 84.765625 -7.03125 
Q 76.953125 -3.515625 72.0625 -1.5625 
Q 67.1875 0.390625 56.25 3.515625 
Q 42.1875 -3.90625 30.46875 -6.4375 
Q 18.75 -8.984375 10.9375 -10.15625 
Q 10.15625 -5.46875 5.859375 -1.953125 
Q 13.28125 -2.34375 25 -0.1875 
Q 36.71875 1.953125 47.65625 6.640625 
Q 42.578125 7.8125 37.296875 9.375 
Q 32.03125 10.9375 23.828125 12.5 
Q 29.296875 19.53125 31.25 23.046875 
L 17.96875 23.046875 
Q 11.328125 23.046875 4.296875 22.265625 
L 4.296875 29.6875 
Q 11.328125 29.296875 17.578125 29.296875 
L 35.15625 29.296875 
Q 37.5 34.765625 39.453125 39.453125 
Q 43.75 37.890625 49.21875 36.328125 
z
M 46.09375 61.328125 
L 46.09375 72.265625 
Q 46.09375 76.953125 45.703125 81.640625 
L 54.296875 81.640625 
Q 53.90625 76.953125 53.90625 72.265625 
L 53.90625 61.328125 
L 79.6875 61.328125 
Q 85.546875 61.328125 93.359375 61.71875 
L 93.359375 54.6875 
Q 85.546875 55.078125 79.6875 55.078125 
L 63.671875 55.078125 
Q 68.359375 49.21875 75.96875 45.703125 
Q 83.59375 42.1875 95.703125 41.40625 
Q 91.796875 37.109375 89.84375 32.421875 
Q 82.8125 33.984375 72.84375 39.25 
Q 62.890625 44.53125 56.25 55.078125 
L 53.90625 55.078125 
L 53.90625 50.390625 
Q 53.90625 44.53125 54.296875 39.0625 
L 45.703125 39.0625 
Q 46.09375 43.75 46.09375 48.828125 
L 46.09375 55.078125 
L 43.75 55.078125 
Q 37.109375 45.703125 29.6875 40.8125 
Q 22.265625 35.9375 12.890625 31.640625 
Q 10.546875 35.15625 5.46875 39.0625 
Q 16.796875 41.015625 23.828125 45.109375 
Q 30.859375 49.21875 35.546875 55.078125 
L 22.265625 55.078125 
Q 14.84375 55.078125 6.640625 54.6875 
L 6.640625 61.71875 
Q 14.84375 61.328125 22.265625 61.328125 
z
M 35.15625 16.40625 
Q 48.046875 13.28125 55.078125 11.71875 
Q 61.328125 17.578125 64.453125 23.046875 
L 39.84375 23.046875 
L 35.15625 16.40625 
z
M 25 79.6875 
Q 31.640625 73.4375 37.109375 68.359375 
Q 33.203125 66.40625 30.46875 62.890625 
Q 24.609375 68.75 18.75 74.21875 
Q 22.265625 77.34375 25 79.6875 
z
M 82.8125 75.78125 
Q 80.078125 73.4375 76.953125 69.921875 
Q 73.828125 66.40625 70.703125 63.28125 
Q 67.578125 65.625 64.453125 67.578125 
Q 67.1875 69.921875 70.3125 73.4375 
Q 73.4375 76.953125 75.78125 80.46875 
L 82.8125 75.78125 
z
" id="SimHei-5a04"/>
       <path d="M 82.421875 46.09375 
L 82.421875 39.84375 
Q 75.390625 38.28125 70.890625 36.125 
Q 66.40625 33.984375 60.15625 30.265625 
Q 53.90625 26.5625 45.3125 21.484375 
Q 36.71875 16.40625 29.484375 10.15625 
Q 22.265625 3.90625 25.78125 2.53125 
Q 29.296875 1.171875 37.890625 1.171875 
L 75.390625 1.171875 
Q 79.6875 1.171875 81.046875 3.703125 
Q 82.421875 6.25 82.8125 14.453125 
Q 87.5 11.328125 92.96875 10.546875 
Q 89.84375 -1.953125 86.125 -3.703125 
Q 82.421875 -5.46875 77.734375 -5.46875 
L 31.25 -5.46875 
Q 23.4375 -5.46875 19.328125 -3.515625 
Q 15.234375 -1.5625 15.234375 3.125 
Q 15.234375 7.8125 19.140625 11.71875 
Q 23.046875 15.625 29.296875 19.921875 
Q 35.546875 24.21875 43.9375 29.09375 
Q 52.34375 33.984375 61.328125 39.84375 
L 31.25 39.84375 
Q 22.65625 39.84375 14.453125 39.453125 
L 14.453125 46.484375 
Q 22.65625 46.09375 31.25 46.09375 
z
M 32.8125 67.96875 
Q 32.8125 74.609375 32.421875 79.296875 
L 41.015625 79.296875 
Q 40.234375 74.609375 40.234375 67.96875 
L 60.15625 67.96875 
Q 60.15625 74.609375 59.765625 79.296875 
L 67.96875 79.296875 
Q 67.578125 74.609375 67.578125 67.96875 
L 81.25 67.96875 
Q 87.890625 67.96875 94.53125 68.359375 
L 94.53125 60.9375 
Q 88.28125 61.328125 81.25 61.328125 
L 67.578125 61.328125 
Q 67.578125 55.859375 67.96875 50.390625 
L 60.15625 50.390625 
L 60.15625 61.328125 
L 40.234375 61.328125 
L 40.234375 50 
L 32.421875 50 
Q 32.8125 55.859375 32.8125 61.328125 
L 19.140625 61.328125 
Q 14.453125 61.328125 7.421875 60.9375 
L 7.421875 68.359375 
Q 14.453125 67.96875 19.140625 67.96875 
z
" id="SimHei-827a"/>
       <path d="M 54.6875 55.46875 
Q 54.6875 57.8125 54.296875 62.5 
L 62.5 62.5 
Q 62.109375 57.8125 62.109375 55.46875 
L 86.328125 55.46875 
Q 85.9375 50 85.9375 46.875 
L 85.9375 43.75 
Q 91.015625 43.75 96.875 44.140625 
L 96.875 37.890625 
Q 91.015625 38.28125 85.9375 38.28125 
L 85.9375 35.15625 
Q 85.9375 32.421875 86.328125 26.171875 
L 62.109375 26.171875 
L 62.109375 4.6875 
Q 62.109375 -1.171875 62.5 -7.03125 
L 54.296875 -7.03125 
Q 54.6875 -1.171875 54.6875 4.6875 
L 54.6875 26.171875 
L 44.53125 26.171875 
Q 38.671875 26.171875 32.421875 25.78125 
L 32.421875 31.640625 
Q 38.671875 31.25 44.921875 31.25 
L 54.6875 31.25 
L 54.6875 38.28125 
L 39.84375 38.28125 
Q 33.59375 38.28125 24.609375 37.890625 
L 24.609375 44.140625 
Q 33.59375 43.75 39.84375 43.75 
L 54.6875 43.75 
L 54.6875 50.390625 
L 46.09375 50.390625 
Q 39.0625 50.390625 32.03125 50 
L 32.03125 55.859375 
Q 39.0625 55.46875 45.703125 55.46875 
z
M 42.1875 72.65625 
Q 42.1875 76.5625 41.796875 82.03125 
L 49.609375 82.03125 
Q 49.21875 75.78125 49.21875 72.65625 
L 69.140625 72.65625 
Q 69.140625 76.5625 68.75 81.640625 
L 76.953125 81.640625 
Q 76.5625 76.5625 76.5625 72.65625 
L 80.078125 72.65625 
Q 86.71875 72.65625 94.140625 73.046875 
L 94.140625 67.1875 
Q 86.71875 67.578125 80.078125 67.578125 
L 76.5625 67.578125 
Q 76.5625 65.234375 76.953125 60.9375 
L 69.140625 60.9375 
L 69.140625 67.578125 
L 49.21875 67.578125 
L 49.21875 60.15625 
L 41.796875 60.15625 
Q 42.1875 64.84375 42.1875 67.578125 
L 38.671875 67.578125 
Q 35.546875 67.578125 26.953125 67.1875 
L 26.953125 73.046875 
Q 35.15625 72.65625 38.671875 72.65625 
z
M 23.4375 26.171875 
Q 19.921875 15.625 18.546875 10.734375 
Q 17.1875 5.859375 15.625 0.578125 
Q 14.0625 -4.6875 12.5 -10.546875 
Q 8.59375 -7.03125 3.90625 -5.078125 
Q 6.25 -1.171875 8.203125 2.921875 
Q 10.15625 7.03125 13.078125 15.625 
Q 16.015625 24.21875 17.1875 30.46875 
Q 20.3125 27.734375 23.4375 26.171875 
z
M 39.84375 21.875 
Q 38.671875 18.75 38.28125 16.015625 
Q 37.890625 13.28125 37.109375 8.390625 
Q 36.328125 3.515625 34.375 -1.359375 
Q 32.421875 -6.25 28.515625 -11.328125 
Q 25 -8.203125 20.703125 -6.640625 
Q 28.125 -1.5625 29.6875 5.859375 
Q 31.25 13.28125 31.640625 22.65625 
Q 35.15625 21.875 39.84375 21.875 
z
M 87.5 22.265625 
Q 87.109375 16.796875 87.109375 12.109375 
L 87.109375 3.125 
Q 87.109375 -3.125 87.5 -9.375 
L 79.6875 -9.375 
Q 80.078125 -3.125 80.078125 3.125 
L 80.078125 13.671875 
Q 80.078125 16.015625 79.6875 22.265625 
L 87.5 22.265625 
z
M 8.203125 55.46875 
Q 11.71875 52.734375 14.84375 50.1875 
Q 17.96875 47.65625 21.484375 44.140625 
Q 19.140625 41.796875 16.40625 37.5 
Q 14.0625 40.234375 11.125 43.15625 
Q 8.203125 46.09375 3.515625 49.21875 
Q 5.46875 51.953125 8.203125 55.46875 
z
M 78.90625 31.25 
L 78.90625 38.28125 
L 62.109375 38.28125 
L 62.109375 31.25 
z
M 51.171875 15.625 
Q 50 12.5 49.21875 8.390625 
Q 48.4375 4.296875 47.265625 -1.171875 
Q 43.359375 0 39.84375 0.78125 
Q 41.015625 3.90625 42.1875 7.421875 
Q 43.359375 10.9375 44.140625 17.1875 
L 51.171875 15.625 
z
M 12.109375 77.734375 
Q 16.40625 74.609375 19.140625 72.65625 
Q 21.875 70.703125 25 67.96875 
Q 21.875 64.453125 19.921875 62.109375 
Q 16.40625 66.015625 7.8125 72.65625 
Q 10.546875 75.390625 12.109375 77.734375 
z
M 78.90625 43.75 
L 78.90625 50.390625 
L 62.109375 50.390625 
L 62.109375 43.75 
z
M 66.015625 15.234375 
Q 69.53125 16.40625 72.265625 17.578125 
Q 73.828125 13.671875 74.609375 10.546875 
L 77.34375 3.125 
Q 73.4375 1.953125 70.3125 0.78125 
Q 69.140625 5.859375 68.359375 8.78125 
Q 67.578125 11.71875 66.015625 15.234375 
z
" id="SimHei-6f47"/>
      </defs>
      <g transform="translate(7.2 373.377774)scale(0.1 -0.1)">
       <use xlink:href="#SimHei-5a04"/>
       <use x="100" xlink:href="#SimHei-827a"/>
       <use x="200" xlink:href="#SimHei-6f47"/>
      </g>
     </g>
    </g>
    <g id="ytick_3">
     <g id="line2d_9">
      <g>
       <use style="stroke:#000000;stroke-width:0.8;" x="44.2" xlink:href="#ma2b292b6d4" y="328.993432"/>
      </g>
     </g>
     <g id="text_9">
      <!-- 陈宥维 -->
      <defs>
       <path d="M 52.34375 65.234375 
Q 55.46875 73.4375 57.03125 82.03125 
Q 62.5 79.296875 66.40625 78.515625 
Q 64.453125 76.171875 63.28125 73.234375 
Q 62.109375 70.3125 60.15625 65.234375 
L 80.859375 65.234375 
Q 87.890625 65.234375 92.1875 65.625 
L 92.1875 58.203125 
Q 86.328125 58.59375 80.859375 58.59375 
L 57.8125 58.59375 
L 53.90625 49.21875 
Q 51.953125 44.53125 48.046875 36.71875 
L 64.0625 36.71875 
Q 64.0625 45.3125 63.671875 52.734375 
L 71.875 52.734375 
Q 71.484375 46.484375 71.484375 36.71875 
L 78.515625 36.71875 
Q 85.9375 36.71875 92.578125 37.109375 
L 92.578125 29.6875 
Q 85.9375 30.078125 78.515625 30.078125 
L 71.484375 30.078125 
L 71.484375 -0.390625 
Q 71.875 -4.296875 67.375 -6.4375 
Q 62.890625 -8.59375 56.25 -9.375 
Q 55.46875 -5.078125 52.734375 -0.390625 
Q 59.765625 -0.390625 61.90625 0.390625 
Q 64.0625 1.171875 64.0625 5.46875 
L 64.0625 30.078125 
Q 58.203125 30.078125 51.953125 29.6875 
Q 45.703125 29.296875 41.40625 27.734375 
Q 39.84375 33.203125 37.890625 37.109375 
Q 41.40625 39.453125 43.9375 44.140625 
Q 46.484375 48.828125 50 58.59375 
Q 42.578125 58.59375 37.109375 58.203125 
L 37.109375 65.625 
Q 44.921875 65.234375 52.34375 65.234375 
z
M 38.671875 75.78125 
Q 32.8125 60.546875 27.34375 43.75 
Q 32.8125 36.328125 35.15625 31.640625 
Q 37.5 26.953125 37.109375 21.671875 
Q 36.71875 16.40625 32.421875 13.28125 
Q 28.125 10.15625 21.484375 8.984375 
Q 20.3125 14.453125 17.578125 18.359375 
Q 25 18.359375 27.34375 21.09375 
Q 29.6875 23.828125 27.34375 29.6875 
Q 25 35.546875 18.75 42.96875 
Q 23.4375 54.296875 27.734375 68.75 
L 14.84375 68.75 
L 14.84375 -8.203125 
L 7.03125 -8.203125 
Q 7.421875 1.953125 7.421875 11.71875 
L 7.421875 57.421875 
Q 7.421875 66.015625 7.03125 75.78125 
L 38.671875 75.78125 
z
M 57.421875 18.75 
Q 55.46875 16.796875 41.40625 -3.125 
Q 38.28125 0 35.15625 1.953125 
Q 38.671875 6.25 42.578125 11.71875 
Q 46.484375 17.1875 49.609375 24.21875 
Q 53.90625 20.703125 57.421875 18.75 
z
M 83.203125 23.4375 
Q 87.109375 18.75 97.265625 3.125 
Q 94.53125 1.953125 89.453125 -1.5625 
Q 83.59375 10.15625 76.953125 18.75 
Q 80.078125 20.703125 83.203125 23.4375 
z
" id="SimHei-9648"/>
       <path d="M 50.78125 62.109375 
Q 48.4375 57.8125 46.484375 53.515625 
L 78.90625 53.515625 
Q 86.328125 53.515625 94.921875 53.90625 
L 94.921875 46.875 
Q 86.328125 47.265625 78.90625 47.265625 
L 44.140625 47.265625 
Q 41.40625 42.1875 39.0625 38.28125 
L 82.421875 38.28125 
Q 82.03125 31.25 82.03125 24.609375 
L 82.03125 -2.34375 
Q 82.03125 -6.25 78.125 -7.8125 
Q 74.21875 -9.375 67.578125 -9.765625 
Q 67.578125 -5.078125 64.84375 -0.390625 
Q 73.4375 -1.171875 73.625 0.1875 
Q 73.828125 1.5625 73.828125 7.421875 
L 35.546875 7.421875 
L 35.546875 -9.765625 
L 27.734375 -9.765625 
Q 28.125 -0.78125 28.125 5.859375 
L 28.125 26.953125 
Q 20.703125 20.3125 9.765625 14.0625 
Q 7.421875 17.578125 3.515625 20.3125 
Q 12.109375 23.828125 21.671875 30.65625 
Q 31.25 37.5 35.9375 47.265625 
L 21.484375 47.265625 
Q 14.0625 47.265625 6.25 46.875 
L 6.25 53.90625 
Q 14.0625 53.515625 21.484375 53.515625 
L 38.28125 53.515625 
Q 40.234375 60.15625 41.015625 64.453125 
Q 44.921875 63.671875 50.78125 62.109375 
z
M 52.734375 82.8125 
Q 54.296875 79.296875 55.859375 72.265625 
L 92.578125 72.265625 
Q 92.1875 67.578125 92.1875 64.453125 
Q 92.1875 61.71875 92.578125 57.421875 
L 84.765625 57.421875 
L 84.765625 66.40625 
L 16.40625 66.40625 
L 16.40625 57.421875 
L 8.59375 57.421875 
Q 8.984375 61.71875 8.984375 65.234375 
Q 8.984375 69.140625 8.59375 72.265625 
L 47.265625 72.265625 
Q 46.09375 76.171875 44.140625 80.46875 
L 52.734375 82.8125 
z
M 74.21875 13.28125 
L 74.21875 20.703125 
L 35.546875 20.703125 
L 35.546875 13.28125 
z
M 74.21875 26.171875 
L 74.21875 33.203125 
L 35.546875 33.203125 
L 35.546875 26.171875 
z
" id="SimHei-5ba5"/>
       <path d="M 57.8125 79.296875 
Q 55.859375 76.5625 54.296875 72.453125 
Q 52.734375 68.359375 51.5625 64.84375 
L 76.5625 64.84375 
Q 84.375 64.84375 90.625 65.234375 
L 90.625 58.203125 
Q 83.984375 58.59375 76.5625 58.59375 
L 72.65625 58.59375 
L 72.65625 45.3125 
Q 82.03125 45.3125 87.890625 45.703125 
L 87.890625 38.671875 
Q 82.03125 39.0625 72.65625 39.0625 
L 72.65625 25 
Q 82.421875 25 88.28125 25.390625 
L 88.28125 18.75 
Q 82.421875 19.140625 72.65625 19.140625 
L 72.65625 5.078125 
L 78.90625 5.078125 
Q 86.71875 5.078125 94.53125 5.46875 
L 94.53125 -1.171875 
Q 86.71875 -0.78125 78.90625 -0.78125 
L 50.78125 -0.78125 
L 50.78125 -9.765625 
L 43.359375 -9.765625 
Q 43.75 -2.34375 43.75 10.15625 
L 43.75 48.046875 
Q 41.40625 42.1875 38.671875 37.109375 
Q 34.765625 39.84375 32.03125 41.40625 
Q 35.546875 46.484375 38.28125 51.75 
Q 41.015625 57.03125 44.328125 66.40625 
Q 47.65625 75.78125 48.4375 82.03125 
Q 52.734375 80.46875 57.8125 79.296875 
z
M 27.34375 78.125 
Q 23.828125 74.609375 20.3125 66.015625 
Q 16.796875 57.421875 12.890625 49.21875 
Q 18.359375 50 23.828125 50.390625 
Q 27.734375 58.984375 28.515625 64.0625 
L 37.109375 60.9375 
Q 34.765625 58.203125 30.46875 50 
Q 26.171875 41.796875 17.578125 24.609375 
L 35.15625 26.953125 
Q 33.59375 22.265625 33.203125 19.53125 
Q 28.125 19.53125 21.671875 18.546875 
Q 15.234375 17.578125 8.984375 15.625 
Q 7.421875 20.3125 6.640625 23.828125 
Q 10.15625 25.390625 13.671875 31.046875 
Q 17.1875 36.71875 20.703125 43.75 
Q 16.40625 43.359375 12.6875 42.765625 
Q 8.984375 42.1875 6.25 41.015625 
Q 5.078125 44.140625 3.125 48.828125 
Q 6.640625 51.171875 10.734375 60.546875 
Q 14.84375 69.921875 17.96875 80.859375 
Q 22.265625 79.296875 27.34375 78.125 
z
M 38.671875 10.15625 
Q 38.28125 6.25 38.28125 3.125 
Q 31.25 1.953125 22.65625 0.1875 
Q 14.0625 -1.5625 7.03125 -4.296875 
Q 5.46875 0 3.90625 4.6875 
Q 11.71875 5.46875 18.546875 6.4375 
Q 25.390625 7.421875 38.671875 10.15625 
z
M 65.625 25 
L 65.625 39.0625 
L 50.78125 39.0625 
L 50.78125 25 
z
M 65.625 5.078125 
L 65.625 19.140625 
L 50.78125 19.140625 
L 50.78125 5.078125 
z
M 65.625 45.3125 
L 65.625 58.59375 
L 50.78125 58.59375 
L 50.78125 45.3125 
z
M 70.3125 81.640625 
Q 71.875 79.296875 76.5625 69.921875 
Q 73.4375 68.75 69.921875 66.796875 
Q 67.96875 71.484375 64.0625 77.734375 
L 70.3125 81.640625 
z
" id="SimHei-7ef4"/>
      </defs>
      <g transform="translate(7.2 332.997339)scale(0.1 -0.1)">
       <use xlink:href="#SimHei-9648"/>
       <use x="100" xlink:href="#SimHei-5ba5"/>
       <use x="200" xlink:href="#SimHei-7ef4"/>
      </g>
     </g>
    </g>
    <g id="ytick_4">
     <g id="line2d_10">
      <g>
       <use style="stroke:#000000;stroke-width:0.8;" x="44.2" xlink:href="#ma2b292b6d4" y="288.652059"/>
      </g>
     </g>
     <g id="text_10">
      <!-- 赵薇 -->
      <defs>
       <path d="M 26.953125 66.796875 
Q 26.953125 75.78125 26.5625 81.640625 
L 34.765625 81.640625 
Q 34.375 74.609375 34.375 66.796875 
Q 44.921875 66.796875 50.78125 67.1875 
L 50.78125 60.15625 
Q 45.3125 60.546875 34.375 60.546875 
L 34.375 46.09375 
Q 49.609375 46.09375 57.421875 46.484375 
L 57.421875 39.0625 
Q 49.609375 39.453125 38.671875 39.453125 
L 38.671875 27.734375 
Q 46.875 27.734375 52.734375 28.125 
L 52.734375 20.703125 
Q 47.265625 21.09375 38.671875 21.09375 
L 38.671875 4.296875 
Q 46.484375 1.5625 65.625 1.5625 
Q 85.15625 1.5625 96.875 2.734375 
Q 94.53125 -1.5625 94.140625 -6.25 
Q 77.34375 -6.25 65.234375 -6.046875 
Q 53.125 -5.859375 44.53125 -4.296875 
Q 35.9375 -2.734375 29.6875 0.78125 
Q 23.4375 4.296875 18.75 11.328125 
Q 17.1875 6.25 15.8125 1.75 
Q 14.453125 -2.734375 10.9375 -10.546875 
Q 7.03125 -6.25 3.90625 -3.515625 
Q 6.640625 0 8.203125 4.09375 
Q 9.765625 8.203125 10.9375 14.640625 
Q 12.109375 21.09375 12.5 31.640625 
Q 17.578125 30.078125 22.65625 29.6875 
Q 18.75 20.3125 22.453125 15.8125 
Q 26.171875 11.328125 30.859375 8.203125 
L 30.859375 39.453125 
Q 14.453125 39.453125 6.25 39.0625 
L 6.25 46.484375 
Q 14.453125 46.09375 26.953125 46.09375 
L 26.953125 60.546875 
Q 18.359375 60.546875 10.9375 60.15625 
L 10.9375 67.1875 
Q 18.359375 66.796875 26.953125 66.796875 
z
M 85.9375 10.9375 
Q 78.90625 25.78125 75 32.421875 
Q 72.265625 27.734375 68.359375 22.0625 
Q 64.453125 16.40625 57.8125 9.375 
Q 55.078125 12.109375 51.171875 14.453125 
Q 58.59375 21.09375 63.28125 27.734375 
Q 67.96875 34.375 70.703125 39.84375 
Q 68.359375 45.3125 64.84375 51.171875 
Q 61.328125 57.03125 53.90625 68.75 
Q 56.640625 70.3125 60.15625 72.65625 
Q 68.359375 60.546875 74.609375 49.21875 
Q 76.5625 54.6875 78.515625 61.90625 
Q 80.46875 69.140625 82.03125 76.953125 
Q 85.15625 74.609375 91.40625 73.4375 
Q 89.0625 68.75 85.9375 59.5625 
Q 82.8125 50.390625 78.90625 41.40625 
Q 81.25 37.5 85.15625 30.65625 
Q 89.0625 23.828125 93.75 15.234375 
Q 90.234375 13.671875 85.9375 10.9375 
z
" id="SimHei-8d75"/>
       <path d="M 64.453125 23.828125 
Q 62.5 27.734375 60.546875 29.296875 
Q 64.84375 37.109375 67.765625 45.890625 
Q 70.703125 54.6875 72.265625 62.5 
Q 75.78125 61.328125 80.46875 60.15625 
Q 78.515625 57.8125 75.390625 48.828125 
L 83.984375 48.828125 
Q 89.453125 48.828125 95.703125 49.21875 
L 95.703125 43.359375 
Q 90.625 43.75 87.890625 43.75 
Q 87.5 35.546875 85.734375 25.96875 
Q 83.984375 16.40625 80.46875 8.984375 
Q 87.109375 0.78125 95.3125 -2.734375 
Q 91.015625 -5.46875 88.671875 -8.59375 
Q 82.03125 -2.734375 76.953125 3.90625 
Q 71.09375 -2.34375 60.9375 -9.765625 
Q 58.59375 -7.421875 54.6875 -5.078125 
Q 66.796875 0.78125 72.65625 9.375 
Q 70.3125 15.234375 68.9375 19.53125 
Q 67.578125 23.828125 66.796875 28.125 
L 64.453125 23.828125 
z
M 32.03125 74.609375 
Q 32.03125 77.34375 31.640625 82.421875 
L 38.671875 82.421875 
Q 38.28125 77.34375 38.28125 74.609375 
L 59.375 74.609375 
Q 59.375 77.734375 58.984375 82.03125 
L 66.015625 82.03125 
Q 65.625 77.34375 65.625 74.609375 
L 80.859375 74.609375 
Q 86.71875 74.609375 93.75 75 
L 93.75 68.359375 
Q 86.71875 68.75 80.859375 68.75 
L 65.625 68.75 
Q 65.625 65.625 66.015625 60.15625 
L 59.375 60.15625 
L 59.375 68.75 
L 38.28125 68.75 
L 38.28125 59.765625 
L 31.640625 59.765625 
Q 32.03125 65.234375 32.03125 68.75 
L 16.40625 68.75 
Q 11.328125 68.75 5.46875 68.359375 
L 5.46875 75 
Q 11.328125 74.609375 16.40625 74.609375 
z
M 31.25 39.453125 
Q 28.125 37.109375 24.609375 32.03125 
L 24.609375 5.46875 
Q 24.609375 -1.953125 25 -8.984375 
L 17.578125 -8.984375 
Q 17.96875 -1.953125 17.96875 5.46875 
L 17.96875 25 
Q 13.28125 19.53125 8.59375 15.625 
Q 5.46875 18.359375 2.734375 20.3125 
Q 9.375 25 15.03125 31.640625 
Q 20.703125 38.28125 23.828125 44.140625 
Q 27.34375 41.796875 31.25 39.453125 
z
M 68.359375 7.8125 
Q 57.03125 1.171875 52.734375 -2.34375 
Q 51.171875 0 48.828125 2.34375 
Q 51.953125 5.078125 51.953125 8.203125 
L 51.953125 16.796875 
L 40.625 16.796875 
Q 40.625 8.984375 39.640625 4.6875 
Q 38.671875 0.390625 35.15625 -5.46875 
Q 31.640625 -3.515625 28.90625 -2.34375 
Q 33.203125 3.90625 33.78125 9.5625 
Q 34.375 15.234375 33.984375 21.875 
L 58.984375 21.875 
Q 58.59375 17.1875 58.59375 8.203125 
Q 62.109375 10.546875 66.40625 13.28125 
Q 67.1875 10.9375 68.359375 7.8125 
z
M 32.03125 38.28125 
L 32.03125 47.265625 
Q 32.03125 50.390625 31.640625 54.296875 
L 38.671875 54.296875 
Q 38.28125 50.78125 38.28125 48.046875 
L 38.28125 43.359375 
L 44.921875 43.359375 
L 44.921875 49.609375 
Q 44.921875 56.25 44.53125 60.15625 
L 51.171875 60.15625 
Q 50.78125 55.078125 50.78125 51.171875 
L 50.78125 43.359375 
L 56.640625 43.359375 
L 56.640625 48.046875 
Q 56.640625 50.78125 56.25 55.078125 
L 63.28125 55.078125 
Q 62.890625 51.171875 62.890625 46.875 
Q 62.890625 42.578125 63.28125 38.28125 
z
M 71.484375 32.8125 
Q 73.046875 24.21875 76.953125 15.625 
Q 79.296875 22.265625 80.265625 28.3125 
Q 81.25 34.375 81.640625 43.75 
L 73.4375 43.75 
L 71.09375 37.109375 
Q 70.3125 35.15625 69.140625 32.421875 
z
M 29.296875 58.984375 
Q 26.171875 55.46875 21.484375 49.796875 
Q 16.796875 44.140625 10.15625 37.890625 
Q 7.421875 40.234375 3.90625 41.796875 
Q 10.546875 47.265625 15.03125 52.734375 
Q 19.53125 58.203125 22.65625 63.671875 
Q 25.78125 61.328125 29.296875 58.984375 
z
M 60.15625 26.953125 
Q 54.296875 27.34375 46.09375 27.34375 
Q 37.890625 27.34375 32.421875 26.953125 
L 32.421875 32.8125 
Q 37.890625 32.421875 46.09375 32.421875 
Q 54.296875 32.421875 60.15625 32.8125 
L 60.15625 26.953125 
z
" id="SimHei-8587"/>
      </defs>
      <g transform="translate(17.2 292.675497)scale(0.1 -0.1)">
       <use xlink:href="#SimHei-8d75"/>
       <use x="100" xlink:href="#SimHei-8587"/>
      </g>
     </g>
    </g>
    <g id="ytick_5">
     <g id="line2d_11">
      <g>
       <use style="stroke:#000000;stroke-width:0.8;" x="44.2" xlink:href="#ma2b292b6d4" y="248.310686"/>
      </g>
     </g>
     <g id="text_11">
      <!-- 何昶希 -->
      <defs>
       <path d="M 64.0625 53.515625 
Q 63.671875 46.875 63.671875 32.8125 
Q 63.671875 18.75 64.0625 13.671875 
L 56.640625 13.671875 
L 56.640625 17.578125 
L 42.96875 17.578125 
L 42.96875 10.9375 
L 35.546875 10.9375 
Q 35.9375 21.09375 35.9375 33.984375 
Q 35.9375 46.875 35.546875 53.515625 
L 64.0625 53.515625 
z
M 85.546875 73.4375 
Q 92.578125 73.4375 95.3125 73.828125 
L 95.3125 66.015625 
Q 91.796875 66.796875 83.984375 66.796875 
L 83.984375 2.34375 
Q 83.984375 -4.296875 80.265625 -6.25 
Q 76.5625 -8.203125 68.359375 -9.375 
Q 67.578125 -4.6875 64.84375 0.390625 
Q 71.875 0 74.40625 0.78125 
Q 76.953125 1.5625 76.953125 5.46875 
L 76.953125 66.796875 
L 48.4375 66.796875 
Q 39.0625 66.796875 32.8125 66.015625 
L 32.8125 73.828125 
Q 37.5 73.4375 47.265625 73.4375 
z
M 15.234375 -8.203125 
Q 16.015625 0 16.015625 11.71875 
L 16.015625 50.390625 
Q 13.28125 44.140625 8.203125 36.71875 
Q 5.859375 39.84375 2.734375 42.1875 
Q 7.8125 48.4375 13.46875 59.5625 
Q 19.140625 70.703125 21.875 82.421875 
Q 25 80.46875 31.25 77.734375 
Q 28.515625 75.390625 23.046875 62.890625 
L 23.046875 10.9375 
Q 23.046875 0.390625 23.4375 -8.203125 
z
M 56.640625 24.21875 
L 56.640625 46.875 
L 42.96875 46.875 
L 42.96875 24.21875 
z
" id="SimHei-4f55"/>
       <path d="M 58.203125 16.015625 
Q 58.59375 22.265625 58.59375 42.578125 
Q 58.59375 63.28125 58.203125 71.09375 
L 92.1875 71.09375 
Q 91.796875 63.28125 91.796875 43.75 
Q 91.796875 24.21875 92.1875 16.015625 
L 58.203125 16.015625 
z
M 56.640625 45.703125 
Q 55.078125 44.921875 51.953125 41.40625 
Q 48.828125 37.890625 42.96875 31.25 
Q 46.875 21.09375 52.140625 15.03125 
Q 57.421875 8.984375 64.0625 6.640625 
Q 70.703125 4.296875 78.515625 3.515625 
Q 86.328125 2.734375 96.484375 2.734375 
Q 93.359375 -1.171875 92.578125 -6.640625 
Q 78.125 -5.46875 69.53125 -3.515625 
Q 60.9375 -1.5625 55.078125 2.34375 
Q 49.21875 6.25 45.3125 12.109375 
Q 41.40625 17.96875 38.671875 25.390625 
L 38.671875 1.171875 
Q 39.84375 -10.15625 24.21875 -10.9375 
Q 23.4375 -5.859375 20.703125 -1.171875 
Q 31.25 -2.734375 30.859375 2.34375 
L 30.859375 56.640625 
Q 17.578125 56.640625 11.328125 56.25 
L 11.328125 63.28125 
Q 18.359375 62.890625 23.046875 62.890625 
L 39.0625 62.890625 
Q 38.671875 56.640625 38.859375 50.390625 
Q 39.0625 44.140625 40.625 37.5 
Q 42.578125 39.84375 45.109375 43.9375 
Q 47.65625 48.046875 49.21875 51.5625 
Q 52.734375 48.828125 56.640625 45.703125 
z
M 27.34375 43.359375 
Q 26.953125 36.71875 25.78125 31.25 
Q 24.609375 25.78125 22.84375 19.921875 
Q 21.09375 14.0625 18.15625 8.78125 
Q 15.234375 3.515625 10.15625 -2.34375 
Q 7.03125 1.171875 3.125 4.296875 
Q 7.8125 7.8125 10.546875 11.90625 
Q 13.28125 16.015625 15.234375 21.671875 
Q 17.1875 27.34375 18.359375 36.71875 
Q 12.109375 36.71875 6.25 36.328125 
L 6.25 43.75 
Q 12.109375 43.359375 17.578125 43.359375 
z
M 84.375 22.65625 
L 84.375 40.625 
L 66.015625 40.625 
L 66.015625 22.65625 
z
M 84.375 47.265625 
L 84.375 64.453125 
L 66.015625 64.453125 
L 66.015625 47.265625 
z
M 28.515625 82.421875 
Q 32.03125 80.46875 37.5 77.921875 
Q 42.96875 75.390625 48.828125 71.875 
Q 46.484375 67.1875 44.53125 63.671875 
Q 41.015625 66.40625 35.546875 69.921875 
Q 30.078125 73.4375 24.21875 75.78125 
Q 26.171875 78.90625 28.515625 82.421875 
z
" id="SimHei-6636"/>
       <path d="M 50 54.296875 
Q 47.65625 51.953125 44.53125 46.875 
L 78.515625 46.875 
Q 85.9375 46.875 95.3125 47.265625 
L 95.3125 40.234375 
Q 86.328125 40.625 78.515625 40.625 
L 41.015625 40.625 
Q 36.328125 34.375 31.640625 29.296875 
L 50.390625 29.296875 
Q 50.390625 33.203125 50 37.5 
L 57.8125 37.5 
Q 57.421875 33.203125 57.421875 29.296875 
L 85.15625 29.296875 
Q 84.765625 24.21875 84.765625 19.53125 
L 84.765625 7.421875 
Q 85.15625 -0.78125 80.265625 -2.53125 
Q 75.390625 -4.296875 70.3125 -4.6875 
Q 69.53125 0 67.1875 3.515625 
Q 76.5625 2.734375 76.953125 4.6875 
Q 77.34375 6.640625 77.34375 10.15625 
L 77.34375 23.046875 
L 57.421875 23.046875 
L 57.421875 1.953125 
Q 57.421875 -2.734375 57.8125 -9.765625 
L 50 -9.765625 
Q 50.390625 -2.734375 50.390625 1.953125 
L 50.390625 23.046875 
L 32.421875 23.046875 
L 32.421875 -3.90625 
L 24.609375 -3.90625 
Q 25 3.125 25 8.203125 
L 25 23.046875 
Q 19.921875 18.359375 9.375 11.71875 
Q 5.46875 16.796875 3.125 17.96875 
Q 12.890625 22.265625 19.921875 28.125 
Q 26.953125 33.984375 31.640625 40.625 
L 17.96875 40.625 
Q 12.890625 40.625 5.078125 40.234375 
L 5.078125 47.265625 
Q 11.328125 46.875 18.359375 46.875 
L 35.546875 46.875 
Q 38.671875 50.78125 41.015625 57.421875 
Q 44.921875 55.859375 50 54.296875 
z
M 78.125 77.34375 
Q 66.796875 71.875 59.375 67.96875 
Q 75.390625 61.71875 85.9375 55.859375 
Q 81.640625 53.125 78.90625 49.609375 
Q 71.484375 54.6875 51.5625 64.453125 
Q 42.1875 59.765625 19.921875 50.78125 
Q 18.75 51.953125 13.671875 57.421875 
Q 28.515625 61.328125 43.75 67.578125 
Q 38.671875 69.921875 20.3125 75.78125 
Q 21.484375 77.34375 24.609375 81.640625 
Q 44.53125 74.21875 51.953125 71.875 
Q 63.671875 77.34375 69.53125 82.8125 
Q 71.875 80.46875 78.125 77.34375 
z
" id="SimHei-5e0c"/>
      </defs>
      <g transform="translate(7.2 252.373186)scale(0.1 -0.1)">
       <use xlink:href="#SimHei-4f55"/>
       <use x="100" xlink:href="#SimHei-6636"/>
       <use x="200" xlink:href="#SimHei-5e0c"/>
      </g>
     </g>
    </g>
    <g id="ytick_6">
     <g id="line2d_12">
      <g>
       <use style="stroke:#000000;stroke-width:0.8;" x="44.2" xlink:href="#ma2b292b6d4" y="207.969314"/>
      </g>
     </g>
     <g id="text_12">
      <!-- 马伯骞 -->
      <defs>
       <path d="M 35.9375 62.109375 
Q 34.375 58.59375 33.203125 51.359375 
Q 32.03125 44.140625 32.03125 37.890625 
L 64.0625 37.890625 
Q 64.84375 45.703125 65.625 53.90625 
Q 66.40625 62.109375 67.1875 68.75 
L 29.6875 68.75 
Q 22.265625 68.75 13.671875 68.359375 
L 13.671875 76.171875 
Q 22.265625 75.78125 29.6875 75.78125 
L 76.171875 75.78125 
Q 74.609375 65.234375 73.4375 54.484375 
Q 72.265625 43.75 71.875 37.890625 
L 89.84375 37.890625 
Q 89.0625 29.296875 88.46875 18.9375 
Q 87.890625 8.59375 85.9375 1.75 
Q 83.984375 -5.078125 79.296875 -6.640625 
Q 74.609375 -8.203125 61.328125 -8.984375 
Q 60.9375 -4.6875 57.8125 0.390625 
Q 73.046875 0 75 0.96875 
Q 76.953125 1.953125 78.3125 4.484375 
Q 79.6875 7.03125 80.46875 16.203125 
Q 81.25 25.390625 81.25 31.25 
L 23.4375 31.25 
Q 24.21875 39.0625 25 47.453125 
Q 25.78125 55.859375 26.171875 63.671875 
Q 31.25 62.890625 35.9375 62.109375 
z
M 56.640625 19.140625 
Q 62.890625 19.140625 73.046875 19.53125 
L 73.046875 12.109375 
Q 62.5 12.5 56.640625 12.5 
L 21.875 12.5 
Q 14.0625 12.5 7.8125 12.109375 
L 7.8125 19.53125 
Q 14.0625 19.140625 21.875 19.140625 
z
" id="SimHei-9a6c"/>
       <path d="M 66.796875 79.6875 
Q 64.453125 76.953125 63.078125 72.84375 
Q 61.71875 68.75 60.546875 64.84375 
L 88.671875 64.84375 
Q 88.28125 60.15625 88.28125 46.484375 
L 88.28125 8.203125 
Q 88.28125 -3.90625 88.671875 -7.8125 
L 80.859375 -7.8125 
L 80.859375 1.953125 
L 45.703125 1.953125 
L 45.703125 -8.984375 
L 37.890625 -8.984375 
Q 38.28125 -3.515625 38.28125 6.640625 
L 38.28125 46.484375 
Q 38.28125 59.375 37.890625 64.84375 
L 53.125 64.84375 
Q 55.46875 77.34375 55.46875 81.640625 
Q 59.375 80.859375 66.796875 79.6875 
z
M 33.59375 76.953125 
Q 30.46875 75 24.609375 58.984375 
L 24.609375 8.984375 
Q 24.609375 -3.515625 25.390625 -9.375 
L 16.796875 -9.375 
Q 17.1875 -3.515625 17.1875 8.59375 
L 17.1875 45.3125 
Q 12.109375 36.71875 8.59375 30.859375 
Q 5.859375 34.375 3.125 37.5 
Q 7.8125 42.96875 14.25 55.859375 
Q 20.703125 68.75 23.828125 81.640625 
Q 30.46875 78.125 33.59375 76.953125 
z
M 80.859375 8.59375 
L 80.859375 30.46875 
L 45.703125 30.46875 
L 45.703125 8.59375 
z
M 80.859375 37.109375 
L 80.859375 58.203125 
L 45.703125 58.203125 
L 45.703125 37.109375 
z
" id="SimHei-4f2f"/>
       <path d="M 30.078125 26.171875 
Q 26.5625 23.828125 21.875 21.671875 
Q 17.1875 19.53125 10.15625 17.1875 
Q 8.59375 19.921875 5.859375 23.046875 
Q 13.671875 23.828125 21.28125 27.53125 
Q 28.90625 31.25 32.421875 35.15625 
L 21.484375 35.15625 
Q 14.84375 35.15625 9.375 34.765625 
L 9.375 40.625 
Q 14.84375 40.234375 21.484375 40.234375 
L 35.546875 40.234375 
L 35.546875 44.921875 
L 30.46875 44.921875 
Q 25 44.921875 19.140625 44.53125 
L 19.140625 50.390625 
Q 24.609375 49.609375 30.078125 49.609375 
L 35.546875 49.609375 
L 35.546875 55.46875 
L 30.859375 55.46875 
Q 26.171875 55.46875 20.703125 55.078125 
L 20.703125 60.546875 
Q 26.171875 60.15625 30.46875 60.15625 
L 35.546875 60.15625 
L 35.546875 65.625 
L 41.796875 65.625 
L 41.796875 60.15625 
L 57.8125 60.15625 
L 57.8125 65.625 
L 64.0625 65.625 
L 64.0625 60.15625 
L 67.96875 60.15625 
Q 73.828125 60.15625 79.296875 60.546875 
L 79.296875 55.078125 
Q 73.828125 55.46875 68.359375 55.46875 
L 64.0625 55.46875 
L 64.0625 49.609375 
L 67.578125 49.609375 
Q 73.046875 49.609375 80.078125 50.390625 
L 80.078125 44.53125 
Q 73.046875 44.921875 67.578125 44.921875 
L 64.0625 44.921875 
L 64.0625 40.234375 
L 78.90625 40.234375 
Q 85.546875 40.234375 91.796875 40.625 
L 91.796875 34.765625 
Q 85.546875 35.15625 78.90625 35.15625 
L 67.96875 35.15625 
Q 71.09375 31.640625 77.140625 28.515625 
Q 83.203125 25.390625 94.53125 23.828125 
Q 91.796875 20.703125 90.625 16.796875 
Q 80.46875 20.3125 76.75 22.265625 
Q 73.046875 24.21875 70.703125 26.171875 
L 69.53125 13.671875 
L 83.59375 13.671875 
Q 82.03125 1.953125 81.046875 -1.953125 
Q 80.078125 -5.859375 78.125 -7.21875 
Q 76.171875 -8.59375 68.359375 -9.765625 
Q 67.578125 -5.859375 64.84375 -2.734375 
Q 73.828125 -2.734375 74.40625 -1.5625 
Q 75 -0.390625 76.171875 8.59375 
L 28.125 8.59375 
Q 29.6875 15.234375 30.46875 20.3125 
Q 35.15625 19.921875 37.5 19.53125 
Q 36.328125 17.1875 35.9375 13.671875 
L 62.890625 13.671875 
L 63.671875 23.4375 
L 40.234375 23.4375 
Q 34.375 23.4375 30.078125 23.046875 
z
M 51.953125 80.859375 
Q 52.34375 77.734375 54.296875 72.65625 
L 90.625 72.65625 
Q 90.234375 69.140625 90.234375 65.234375 
Q 90.234375 61.71875 90.625 58.203125 
L 83.59375 58.203125 
L 83.59375 67.578125 
L 17.1875 67.578125 
L 17.1875 57.8125 
L 10.15625 57.8125 
Q 10.546875 61.71875 10.546875 65.234375 
Q 10.546875 69.140625 10.15625 72.65625 
L 46.09375 72.65625 
Q 44.53125 76.953125 43.75 79.6875 
Q 48.046875 80.46875 51.953125 80.859375 
z
M 50.390625 2.734375 
Q 56.640625 2.734375 63.28125 3.125 
L 63.28125 -2.734375 
Q 56.640625 -2.34375 50.78125 -2.34375 
L 25.78125 -2.34375 
Q 19.53125 -2.34375 13.28125 -2.734375 
L 13.28125 3.125 
Q 20.3125 2.734375 25.78125 2.734375 
z
M 67.96875 28.125 
Q 64.84375 30.46875 61.328125 35.15625 
L 39.453125 35.15625 
Q 35.15625 30.46875 32.8125 28.125 
z
M 57.8125 49.609375 
L 57.8125 55.46875 
L 41.796875 55.46875 
L 41.796875 49.609375 
z
M 57.8125 40.234375 
L 57.8125 44.921875 
L 41.796875 44.921875 
L 41.796875 40.234375 
z
" id="SimHei-9a9e"/>
      </defs>
      <g transform="translate(7.2 211.914626)scale(0.1 -0.1)">
       <use xlink:href="#SimHei-9a6c"/>
       <use x="100" xlink:href="#SimHei-4f2f"/>
       <use x="200" xlink:href="#SimHei-9a9e"/>
      </g>
     </g>
    </g>
    <g id="ytick_7">
     <g id="line2d_13">
      <g>
       <use style="stroke:#000000;stroke-width:0.8;" x="44.2" xlink:href="#ma2b292b6d4" y="167.627941"/>
      </g>
     </g>
     <g id="text_13">
      <!-- 陈凯歌 -->
      <defs>
       <path d="M 42.96875 -9.765625 
Q 40.234375 -5.859375 36.328125 -2.734375 
Q 43.359375 1.171875 47.65625 6.828125 
Q 51.953125 12.5 54.296875 19.71875 
Q 56.640625 26.953125 56.828125 35.546875 
Q 57.03125 44.140625 57.03125 55.859375 
Q 57.03125 67.578125 56.640625 73.4375 
L 82.8125 73.4375 
Q 82.03125 67.578125 82.03125 58.59375 
L 82.03125 5.078125 
Q 82.03125 1.171875 83.203125 1.171875 
L 85.9375 1.171875 
Q 87.5 1.171875 88.078125 3.125 
Q 88.671875 5.078125 89.0625 11.71875 
Q 92.578125 8.59375 96.875 7.421875 
Q 94.53125 -3.515625 92.765625 -4.875 
Q 91.015625 -6.25 86.71875 -6.25 
L 82.03125 -6.25 
Q 74.609375 -6.25 74.609375 0 
L 74.609375 67.1875 
L 64.0625 67.1875 
Q 64.0625 43.359375 63.859375 36.515625 
Q 63.671875 29.6875 62.890625 24.015625 
Q 62.109375 18.359375 59.953125 13.078125 
Q 57.8125 7.8125 53.90625 2.140625 
Q 50 -3.515625 42.96875 -9.765625 
z
M 12.5 -4.6875 
Q 10.15625 0.390625 7.8125 2.734375 
Q 10.9375 5.46875 10.9375 9.765625 
L 10.9375 20.3125 
Q 10.9375 23.4375 10.15625 28.90625 
L 38.671875 28.90625 
L 38.671875 38.671875 
L 18.359375 38.671875 
Q 11.71875 38.671875 6.640625 38.28125 
L 6.640625 44.921875 
Q 11.328125 44.53125 17.96875 44.53125 
L 46.09375 44.53125 
Q 45.703125 39.453125 45.703125 33.59375 
Q 45.703125 28.125 46.09375 23.046875 
L 18.359375 23.046875 
L 18.359375 5.859375 
Q 23.4375 7.421875 30.078125 9.5625 
Q 36.71875 11.71875 44.53125 14.0625 
L 44.921875 6.640625 
Q 40.234375 5.46875 36.328125 4.296875 
Q 32.421875 3.125 28.125 1.75 
Q 23.828125 0.390625 19.921875 -1.171875 
Q 16.015625 -2.734375 12.5 -4.6875 
z
M 16.40625 73.4375 
Q 15.625 69.53125 15.625 57.8125 
L 25.390625 57.8125 
L 25.390625 69.140625 
Q 25.390625 74.609375 24.609375 79.296875 
L 33.203125 79.296875 
Q 32.8125 74.609375 32.8125 69.140625 
L 32.8125 57.8125 
L 41.796875 57.8125 
Q 41.796875 67.96875 41.40625 73.4375 
L 49.609375 73.4375 
Q 49.21875 69.53125 49.21875 62.5 
Q 49.21875 55.46875 49.609375 51.953125 
L 7.8125 51.953125 
Q 8.203125 55.078125 8.203125 62.890625 
Q 8.203125 70.703125 7.8125 73.4375 
z
" id="SimHei-51ef"/>
       <path d="M 89.453125 -7.421875 
Q 83.59375 -1.953125 79.484375 4.296875 
Q 75.390625 10.546875 72.65625 18.359375 
Q 70.3125 11.71875 66.203125 5.078125 
Q 62.109375 -1.5625 54.296875 -8.984375 
Q 51.5625 -5.859375 48.046875 -3.125 
Q 53.515625 0.78125 58.390625 6.828125 
Q 63.28125 12.890625 65.421875 19.140625 
Q 67.578125 25.390625 67.578125 33.203125 
Q 67.578125 41.40625 67.1875 46.484375 
L 75.78125 46.484375 
Q 75.390625 41.40625 75.390625 35.9375 
Q 75.390625 30.859375 77.140625 24.21875 
Q 78.90625 17.578125 84.375 10.546875 
Q 89.84375 3.515625 96.484375 -0.390625 
Q 91.796875 -3.515625 89.453125 -7.421875 
z
M 47.65625 39.453125 
Q 53.515625 39.453125 58.203125 39.84375 
L 58.203125 33.203125 
Q 53.515625 33.59375 47.265625 33.59375 
L 47.265625 0.390625 
Q 47.265625 -5.46875 43.359375 -7.21875 
Q 39.453125 -8.984375 32.03125 -9.765625 
Q 31.25 -5.859375 28.515625 -1.5625 
Q 35.9375 -1.953125 38.078125 -1.359375 
Q 40.234375 -0.78125 40.234375 2.734375 
L 40.234375 33.59375 
L 16.796875 33.59375 
Q 11.328125 33.59375 5.46875 33.203125 
L 5.46875 39.84375 
Q 10.9375 39.453125 16.40625 39.453125 
L 47.65625 39.453125 
z
M 26.5625 3.125 
L 26.5625 5.859375 
L 16.796875 5.859375 
L 16.796875 -3.125 
L 9.375 -3.125 
Q 9.765625 3.90625 9.765625 11.71875 
Q 9.765625 19.921875 9.375 26.953125 
L 33.59375 26.953125 
Q 33.203125 21.09375 33.203125 15.234375 
Q 33.203125 9.375 33.59375 3.125 
z
M 65.234375 56.640625 
Q 62.109375 50.390625 58.59375 42.96875 
Q 55.078125 44.921875 50.78125 46.09375 
Q 55.46875 52.734375 60.15625 63.46875 
Q 64.84375 74.21875 66.015625 81.25 
Q 70.703125 79.296875 75 78.125 
Q 73.046875 75.390625 70.890625 69.921875 
Q 68.75 64.453125 67.578125 62.109375 
L 93.75 62.109375 
Q 91.40625 54.296875 89.0625 43.359375 
Q 84.765625 44.140625 82.03125 44.53125 
Q 83.59375 51.953125 84.765625 56.640625 
z
M 40.234375 69.53125 
L 17.1875 69.53125 
Q 11.328125 69.53125 5.859375 69.140625 
L 5.859375 75.78125 
Q 11.328125 75.390625 17.1875 75.390625 
L 44.921875 75.390625 
Q 50.390625 75.390625 55.46875 75.78125 
L 55.46875 69.53125 
Q 50.78125 69.921875 47.265625 69.921875 
L 47.265625 42.96875 
L 40.234375 42.96875 
z
M 33.984375 63.671875 
Q 33.59375 58.984375 33.59375 54.296875 
Q 33.59375 49.609375 33.984375 44.53125 
L 9.765625 44.53125 
Q 10.15625 49.609375 10.15625 53.90625 
Q 10.15625 58.59375 9.765625 63.671875 
L 33.984375 63.671875 
z
M 26.5625 10.9375 
L 26.5625 21.484375 
L 16.796875 21.484375 
L 16.796875 10.9375 
z
M 26.953125 50.390625 
L 26.953125 58.203125 
L 17.1875 58.203125 
L 17.1875 50.390625 
z
" id="SimHei-6b4c"/>
      </defs>
      <g transform="translate(7.2 171.592784)scale(0.1 -0.1)">
       <use xlink:href="#SimHei-9648"/>
       <use x="100" xlink:href="#SimHei-51ef"/>
       <use x="200" xlink:href="#SimHei-6b4c"/>
      </g>
     </g>
    </g>
    <g id="ytick_8">
     <g id="line2d_14">
      <g>
       <use style="stroke:#000000;stroke-width:0.8;" x="44.2" xlink:href="#ma2b292b6d4" y="127.286568"/>
      </g>
     </g>
     <g id="text_14">
      <!-- 丁程鑫 -->
      <defs>
       <path d="M 94.53125 66.015625 
Q 86.328125 66.40625 79.6875 66.40625 
L 53.90625 66.40625 
L 53.90625 3.90625 
Q 53.125 -3.515625 47.84375 -5.65625 
Q 42.578125 -7.8125 32.8125 -8.984375 
Q 32.03125 -3.515625 28.515625 1.5625 
Q 37.890625 1.171875 41.796875 2.140625 
Q 45.703125 3.125 45.3125 9.375 
L 45.3125 66.40625 
L 21.09375 66.40625 
Q 12.5 66.40625 5.46875 66.015625 
L 5.46875 74.609375 
Q 12.109375 74.21875 21.09375 74.21875 
L 79.6875 74.21875 
Q 88.28125 74.21875 94.53125 74.609375 
z
" id="SimHei-4e01"/>
       <path d="M 91.015625 77.734375 
Q 90.625 69.140625 90.625 62.109375 
Q 90.625 55.46875 91.015625 48.828125 
L 47.265625 48.828125 
Q 47.65625 56.25 47.65625 62.890625 
Q 47.65625 69.53125 47.265625 77.734375 
L 91.015625 77.734375 
z
M 6.25 75.390625 
Q 12.890625 76.171875 21.28125 77.921875 
Q 29.6875 79.6875 35.546875 82.421875 
Q 38.28125 77.34375 41.015625 73.828125 
Q 38.28125 74.21875 35.34375 73.625 
Q 32.421875 73.046875 28.90625 72.65625 
L 28.90625 53.515625 
Q 34.375 53.515625 40.625 53.90625 
L 40.625 46.484375 
Q 34.375 46.875 28.90625 46.875 
L 28.90625 12.5 
Q 28.90625 3.90625 29.296875 -10.546875 
L 21.484375 -10.546875 
Q 21.875 3.90625 21.875 12.109375 
L 21.875 30.078125 
Q 16.40625 19.140625 9.765625 9.375 
Q 7.03125 13.28125 3.515625 16.40625 
Q 8.984375 21.875 13.28125 28.90625 
Q 17.578125 35.9375 21.09375 46.875 
Q 11.328125 46.875 6.640625 46.484375 
L 6.640625 53.90625 
Q 13.28125 53.515625 16.40625 53.515625 
L 21.875 53.515625 
L 21.875 71.09375 
Q 16.796875 69.921875 8.984375 68.75 
Q 7.8125 72.265625 6.25 75.390625 
z
M 79.6875 39.0625 
Q 85.9375 39.0625 92.96875 39.453125 
L 92.96875 32.421875 
Q 85.9375 32.8125 79.6875 32.8125 
L 72.265625 32.8125 
L 72.265625 20.3125 
L 76.5625 20.3125 
Q 82.421875 20.3125 90.234375 20.703125 
L 90.234375 13.28125 
Q 82.421875 13.671875 77.734375 13.671875 
L 72.265625 13.671875 
L 72.265625 0 
L 81.640625 0 
Q 88.671875 0 96.484375 0.390625 
L 96.484375 -7.03125 
Q 90.234375 -6.640625 81.640625 -6.640625 
L 55.46875 -6.640625 
Q 46.875 -6.640625 40.625 -7.421875 
L 40.625 0.390625 
Q 46.875 0 55.46875 0 
L 64.84375 0 
L 64.84375 13.671875 
L 59.375 13.671875 
Q 53.125 13.671875 47.65625 12.890625 
L 47.65625 20.703125 
Q 53.125 20.3125 59.375 20.3125 
L 64.84375 20.3125 
L 64.84375 32.8125 
L 58.59375 32.8125 
Q 51.5625 32.8125 45.3125 32.421875 
L 45.3125 39.453125 
Q 51.5625 39.0625 58.59375 39.0625 
z
M 82.421875 55.859375 
L 82.421875 71.09375 
L 54.6875 71.09375 
L 54.6875 55.859375 
z
M 35.9375 37.5 
Q 39.84375 31.640625 44.140625 23.828125 
Q 41.796875 22.265625 37.890625 19.140625 
Q 33.984375 27.734375 30.078125 33.203125 
Q 32.421875 35.15625 35.9375 37.5 
z
" id="SimHei-7a0b"/>
       <path d="M 46.875 55.46875 
L 46.875 59.765625 
L 32.421875 59.765625 
L 32.421875 64.0625 
L 66.015625 64.0625 
L 66.015625 59.765625 
L 53.125 59.765625 
L 53.125 55.46875 
L 67.96875 55.46875 
Q 71.875 55.46875 80.46875 55.859375 
L 80.46875 50.78125 
Q 73.4375 51.171875 67.96875 51.171875 
L 72.65625 49.609375 
Q 70.703125 46.875 69.53125 44.140625 
Q 76.953125 44.140625 85.15625 44.53125 
L 85.15625 39.453125 
Q 76.953125 39.84375 71.875 39.84375 
L 25.390625 39.84375 
Q 19.53125 39.84375 14.84375 39.453125 
L 14.84375 44.53125 
Q 19.921875 44.140625 24.609375 44.140625 
L 32.8125 44.140625 
Q 31.25 46.875 30.078125 49.21875 
Q 32.03125 50.390625 33.984375 51.171875 
L 26.5625 51.171875 
Q 22.65625 51.171875 19.921875 50.78125 
L 19.921875 55.859375 
Q 24.21875 55.46875 30.078125 55.46875 
z
M 59.375 -7.03125 
Q 53.90625 -7.03125 46.875 -7.421875 
L 46.875 -2.34375 
Q 53.125 -2.734375 55.859375 -2.734375 
Q 54.6875 0.390625 53.125 3.90625 
Q 55.46875 4.6875 58.203125 5.859375 
L 61.328125 -2.734375 
L 66.796875 -2.734375 
L 66.796875 8.203125 
L 62.890625 8.203125 
Q 57.421875 8.203125 51.5625 7.8125 
L 51.5625 12.5 
Q 57.421875 12.109375 62.109375 12.109375 
L 66.796875 12.109375 
L 66.796875 17.96875 
L 57.8125 17.96875 
L 57.8125 22.265625 
L 82.8125 22.265625 
L 82.8125 17.96875 
L 73.046875 17.96875 
L 73.046875 12.109375 
L 80.859375 12.109375 
Q 83.984375 12.109375 90.625 12.5 
L 90.625 7.8125 
Q 83.984375 8.203125 78.515625 8.203125 
L 73.046875 8.203125 
L 73.046875 -2.734375 
L 79.6875 -2.734375 
L 82.03125 5.859375 
Q 85.15625 5.078125 89.0625 3.515625 
Q 86.328125 1.171875 84.765625 -2.734375 
Q 87.890625 -2.734375 94.140625 -1.953125 
L 94.140625 -7.421875 
Q 89.453125 -7.03125 85.15625 -7.03125 
z
M 54.6875 76.5625 
Q 64.0625 71.09375 68.9375 69.53125 
Q 73.828125 67.96875 80.46875 66.796875 
Q 87.109375 65.625 96.09375 64.453125 
Q 93.75 60.546875 92.96875 57.03125 
Q 86.328125 58.59375 80.859375 59.953125 
Q 75.390625 61.328125 69.328125 63.28125 
Q 63.28125 65.234375 49.609375 73.4375 
Q 45.3125 70.703125 40.421875 68.15625 
Q 35.546875 65.625 29.6875 63.28125 
Q 23.828125 60.9375 9.375 56.640625 
Q 7.421875 60.15625 5.078125 63.28125 
Q 17.96875 65.234375 26.5625 68.359375 
Q 35.15625 71.484375 39.84375 74.609375 
Q 44.53125 77.734375 47.65625 81.640625 
Q 50 80.859375 57.03125 78.90625 
z
M 26.5625 -0.390625 
L 26.5625 10.9375 
Q 18.75 10.9375 12.5 10.546875 
L 12.5 15.234375 
Q 18.75 14.84375 26.5625 14.84375 
L 26.5625 20.3125 
L 18.359375 20.3125 
L 18.359375 24.21875 
L 41.40625 24.21875 
L 41.40625 20.3125 
L 32.8125 20.3125 
L 32.8125 14.84375 
Q 35.9375 14.84375 42.1875 15.234375 
L 42.1875 10.546875 
Q 35.9375 10.9375 32.8125 10.9375 
L 32.8125 0.390625 
L 36.71875 0.78125 
Q 37.5 4.296875 38.671875 8.984375 
Q 41.40625 8.203125 44.53125 7.03125 
Q 42.578125 4.296875 41.40625 0.78125 
Q 43.75 1.5625 45.3125 1.5625 
Q 44.921875 -1.171875 45.3125 -3.515625 
Q 35.15625 -3.90625 26.953125 -5.078125 
Q 18.75 -6.25 8.984375 -7.8125 
Q 8.203125 -4.296875 7.03125 -1.953125 
Q 10.9375 -1.953125 16.40625 -1.5625 
Q 14.84375 3.125 13.28125 6.25 
Q 15.234375 7.421875 18.359375 8.203125 
Q 19.921875 4.296875 21.484375 -0.78125 
z
M 93.75 19.140625 
Q 85.546875 21.875 79.6875 25 
Q 73.828125 28.125 69.53125 31.640625 
Q 66.40625 29.296875 62.5 25.96875 
Q 58.59375 22.65625 50 18.359375 
Q 47.265625 21.484375 44.921875 23.046875 
Q 49.21875 24.609375 55.65625 27.734375 
Q 62.109375 30.859375 66.015625 37.890625 
L 73.828125 36.328125 
L 72.65625 35.15625 
Q 76.5625 32.03125 82.21875 29.296875 
Q 87.890625 26.5625 96.875 25.390625 
Q 94.53125 22.265625 93.75 19.140625 
z
M 44.140625 24.609375 
Q 38.28125 28.515625 28.125 33.203125 
Q 23.828125 28.90625 19.328125 25.390625 
Q 14.84375 21.875 8.984375 18.359375 
L 4.296875 23.046875 
Q 9.375 25 15.421875 28.90625 
Q 21.484375 32.8125 25.390625 39.0625 
L 32.8125 37.5 
L 31.640625 36.328125 
Q 42.578125 32.03125 48.046875 28.90625 
Q 45.3125 26.953125 44.140625 24.609375 
z
M 53.125 51.171875 
L 53.125 44.140625 
L 64.453125 44.140625 
Q 65.234375 48.046875 66.796875 51.171875 
z
M 46.875 44.140625 
L 46.875 51.171875 
L 35.15625 51.171875 
Q 36.328125 48.046875 38.28125 44.140625 
z
" id="SimHei-946b"/>
      </defs>
      <g transform="translate(7.2 131.310005)scale(0.1 -0.1)">
       <use xlink:href="#SimHei-4e01"/>
       <use x="100" xlink:href="#SimHei-7a0b"/>
       <use x="200" xlink:href="#SimHei-946b"/>
      </g>
     </g>
    </g>
    <g id="ytick_9">
     <g id="line2d_15">
      <g>
       <use style="stroke:#000000;stroke-width:0.8;" x="44.2" xlink:href="#ma2b292b6d4" y="86.945195"/>
      </g>
     </g>
     <g id="text_15">
      <!-- 郭敬明 -->
      <defs>
       <path d="M 68.75 68.75 
L 68.75 -10.9375 
L 61.328125 -10.9375 
Q 61.71875 -3.125 61.71875 5.46875 
L 61.71875 55.859375 
Q 61.71875 64.453125 61.328125 75 
L 94.140625 75 
Q 87.890625 55.859375 83.203125 39.453125 
Q 88.28125 33.59375 92.578125 26.75 
Q 96.875 19.921875 95.890625 13.46875 
Q 94.921875 7.03125 90.421875 3.90625 
Q 85.9375 0.78125 78.515625 -0.390625 
Q 77.34375 2.734375 74.609375 8.59375 
Q 82.421875 8.59375 85.15625 9.953125 
Q 87.890625 11.328125 88.28125 16.015625 
Q 88.671875 20.703125 84.5625 26.953125 
Q 80.46875 33.203125 75 38.28125 
Q 79.296875 49.609375 84.375 68.75 
z
M 55.078125 11.71875 
Q 51.171875 11.328125 37.5 9.765625 
L 37.5 -1.171875 
Q 37.5 -6.25 34.5625 -8.203125 
Q 31.640625 -10.15625 23.046875 -11.71875 
Q 22.265625 -7.421875 20.703125 -3.125 
Q 26.5625 -3.125 28.515625 -2.34375 
Q 30.46875 -1.5625 30.46875 1.171875 
L 30.46875 8.59375 
Q 14.84375 6.25 8.984375 4.296875 
Q 8.203125 8.203125 6.640625 12.109375 
Q 12.890625 12.5 30.46875 14.453125 
Q 30.46875 18.359375 29.296875 21.875 
Q 33.59375 23.4375 40.625 27.34375 
L 21.09375 27.34375 
Q 13.671875 27.34375 8.59375 26.953125 
L 8.59375 33.984375 
Q 14.0625 33.59375 21.09375 33.59375 
L 52.34375 33.59375 
L 52.34375 26.5625 
Q 48.4375 25 37.5 19.53125 
L 37.5 15.625 
Q 44.921875 16.40625 55.859375 18.359375 
Q 55.078125 14.84375 55.078125 11.71875 
z
M 52.34375 59.375 
Q 51.953125 54.6875 51.953125 49.609375 
Q 51.953125 44.921875 52.34375 40.234375 
L 10.9375 40.234375 
Q 11.328125 45.3125 11.328125 49.609375 
Q 11.328125 54.296875 10.9375 59.375 
L 52.34375 59.375 
z
M 37.5 71.484375 
Q 51.171875 71.484375 56.640625 71.875 
L 56.640625 64.84375 
Q 51.171875 65.234375 30.078125 65.234375 
Q 9.375 65.234375 4.6875 64.84375 
L 4.6875 71.875 
Q 9.375 71.484375 29.296875 71.484375 
Q 28.515625 76.171875 27.34375 80.859375 
Q 32.03125 81.25 35.546875 82.03125 
Q 36.71875 75 37.5 71.484375 
z
M 44.921875 46.484375 
L 44.921875 53.125 
L 18.359375 53.125 
L 18.359375 46.484375 
z
" id="SimHei-90ed"/>
       <path d="M 55.859375 42.96875 
Q 53.515625 45.3125 48.828125 47.65625 
Q 55.46875 55.46875 59.171875 65.03125 
Q 62.890625 74.609375 64.0625 82.421875 
Q 67.96875 80.859375 73.046875 79.296875 
Q 71.875 78.125 70.703125 75.1875 
Q 69.53125 72.265625 66.796875 65.234375 
L 87.109375 65.234375 
Q 90.234375 65.234375 94.53125 65.625 
L 94.53125 57.8125 
Q 89.0625 58.203125 87.5 58.203125 
Q 86.328125 44.921875 83.78125 33.203125 
Q 81.25 21.484375 78.125 14.0625 
Q 80.46875 10.546875 85.34375 5.859375 
Q 90.234375 1.171875 96.484375 -1.171875 
Q 93.359375 -4.296875 91.796875 -8.984375 
Q 83.984375 -4.296875 80.078125 -0.1875 
Q 76.171875 3.90625 74.21875 7.03125 
Q 71.09375 3.125 67.96875 -0.1875 
Q 64.84375 -3.515625 55.46875 -10.546875 
Q 52.734375 -5.078125 50 -2.734375 
Q 55.859375 -0.390625 60.9375 4.296875 
Q 66.015625 8.984375 69.53125 14.0625 
Q 64.453125 24.21875 62.109375 31.4375 
Q 59.765625 38.671875 57.8125 46.484375 
Q 57.421875 44.921875 55.859375 42.96875 
z
M 25.390625 50.78125 
Q 23.046875 47.65625 22.265625 45.703125 
L 50.78125 45.703125 
Q 50.390625 38.671875 50.390625 32.03125 
L 50.390625 5.078125 
Q 50.390625 -2.34375 46.671875 -5.078125 
Q 42.96875 -7.8125 33.59375 -8.59375 
Q 33.59375 -4.6875 30.078125 0.390625 
Q 38.28125 -0.390625 40.8125 0.96875 
Q 43.359375 2.34375 43.359375 6.25 
L 43.359375 39.0625 
L 18.75 39.0625 
Q 16.40625 35.546875 13.671875 32.03125 
L 35.9375 32.03125 
Q 35.546875 25 35.546875 17.578125 
Q 35.546875 10.15625 35.9375 2.734375 
L 28.90625 2.734375 
L 28.90625 8.59375 
L 19.140625 8.59375 
L 19.140625 -0.78125 
L 11.71875 -0.78125 
Q 12.109375 7.03125 12.109375 14.453125 
L 12.109375 29.6875 
Q 10.546875 27.34375 8.984375 25.390625 
Q 5.078125 29.296875 3.125 30.46875 
Q 7.421875 34.375 11.328125 40.8125 
Q 15.234375 47.265625 16.796875 53.90625 
Q 21.484375 51.5625 25.390625 50.78125 
z
M 18.75 69.140625 
Q 18.75 76.953125 18.359375 80.078125 
L 26.171875 80.078125 
Q 25.390625 76.953125 25.390625 69.140625 
L 35.9375 69.140625 
Q 35.9375 75 35.546875 80.078125 
L 43.359375 80.078125 
Q 42.578125 76.5625 42.578125 69.140625 
Q 49.21875 69.140625 55.078125 69.53125 
L 55.078125 62.5 
Q 49.21875 62.890625 42.578125 62.890625 
Q 42.578125 58.984375 42.96875 53.125 
L 35.9375 53.125 
L 35.9375 62.890625 
L 25.390625 62.890625 
L 25.390625 53.90625 
L 18.359375 53.90625 
Q 18.75 60.546875 18.75 62.890625 
Q 12.5 62.890625 5.46875 62.5 
L 5.46875 69.53125 
Q 10.9375 69.140625 18.75 69.140625 
z
M 62.5 53.515625 
Q 65.234375 42.578125 68.75 33.59375 
Q 72.265625 24.609375 73.828125 21.09375 
Q 75.78125 28.90625 77.34375 36.125 
Q 78.90625 43.359375 80.078125 58.203125 
L 64.453125 58.203125 
L 62.5 53.515625 
z
M 28.90625 14.453125 
L 28.90625 26.171875 
L 19.140625 26.171875 
L 19.140625 14.453125 
z
" id="SimHei-656c"/>
       <path d="M 90.234375 77.734375 
Q 89.84375 70.3125 89.84375 60.546875 
L 89.84375 4.296875 
Q 90.234375 -3.125 87.296875 -5.265625 
Q 84.375 -7.421875 74.21875 -8.984375 
Q 73.4375 -4.6875 70.3125 0.390625 
Q 76.953125 0 79.6875 0.578125 
Q 82.421875 1.171875 82.03125 4.6875 
L 82.03125 25.390625 
L 58.984375 25.390625 
Q 56.640625 5.078125 45.703125 -10.9375 
Q 41.796875 -7.421875 37.5 -5.859375 
Q 52.734375 9.375 51.5625 43.75 
L 51.5625 60.15625 
Q 51.5625 69.53125 51.171875 77.734375 
L 90.234375 77.734375 
z
M 40.234375 74.609375 
Q 39.84375 66.40625 39.84375 57.03125 
L 39.84375 28.90625 
Q 39.84375 19.53125 40.234375 12.109375 
L 32.8125 12.109375 
L 32.8125 17.96875 
L 16.40625 17.96875 
L 16.40625 7.03125 
L 8.59375 7.03125 
Q 8.984375 13.671875 8.984375 24.21875 
L 8.984375 57.421875 
Q 8.984375 66.796875 8.59375 74.609375 
L 40.234375 74.609375 
z
M 82.03125 54.6875 
L 82.03125 71.09375 
L 59.375 71.09375 
L 59.375 54.6875 
z
M 82.03125 32.03125 
L 82.03125 48.046875 
L 59.375 48.046875 
L 59.375 32.03125 
z
M 32.8125 25 
L 32.8125 44.140625 
L 16.40625 44.140625 
L 16.40625 25 
z
M 32.8125 50.390625 
L 32.8125 67.96875 
L 16.40625 67.96875 
L 16.40625 50.390625 
z
" id="SimHei-660e"/>
      </defs>
      <g transform="translate(7.2 91.027226)scale(0.1 -0.1)">
       <use xlink:href="#SimHei-90ed"/>
       <use x="100" xlink:href="#SimHei-656c"/>
       <use x="200" xlink:href="#SimHei-660e"/>
      </g>
     </g>
    </g>
    <g id="ytick_10">
     <g id="line2d_16">
      <g>
       <use style="stroke:#000000;stroke-width:0.8;" x="44.2" xlink:href="#ma2b292b6d4" y="46.603822"/>
      </g>
     </g>
     <g id="text_16">
      <!-- 孟子义 -->
      <defs>
       <path d="M 85.546875 26.171875 
Q 85.15625 21.09375 85.15625 15.625 
L 85.15625 0.78125 
Q 90.234375 0.78125 96.484375 1.171875 
L 96.484375 -5.859375 
Q 90.234375 -5.46875 82.421875 -5.46875 
L 16.40625 -5.46875 
Q 10.9375 -5.46875 3.90625 -5.859375 
L 3.90625 1.171875 
Q 10.15625 0.78125 14.453125 0.78125 
L 14.453125 15.625 
Q 14.453125 20.703125 14.0625 26.171875 
L 85.546875 26.171875 
z
M 80.859375 77.34375 
L 80.859375 69.921875 
Q 77.34375 69.140625 70.5 66.015625 
Q 63.671875 62.890625 55.859375 58.984375 
L 55.859375 55.078125 
L 79.296875 55.078125 
Q 85.9375 55.078125 93.359375 55.46875 
L 93.359375 48.046875 
Q 85.9375 48.4375 79.296875 48.4375 
L 55.859375 48.4375 
L 55.859375 38.28125 
Q 55.859375 32.03125 51.75 30.46875 
Q 47.65625 28.90625 39.84375 28.125 
Q 39.453125 32.03125 37.890625 35.9375 
Q 44.921875 35.9375 46.875 36.90625 
Q 48.828125 37.890625 48.4375 48.4375 
L 21.09375 48.4375 
Q 14.84375 48.4375 7.03125 48.046875 
L 7.03125 55.46875 
Q 15.625 55.078125 21.09375 55.078125 
L 48.4375 55.078125 
Q 48.4375 58.59375 47.65625 62.890625 
Q 51.171875 64.453125 55.46875 66.203125 
Q 59.765625 67.96875 65.234375 70.703125 
L 30.078125 70.703125 
Q 26.953125 70.703125 19.53125 70.3125 
L 19.53125 77.734375 
Q 26.953125 77.34375 31.640625 77.34375 
z
M 77.34375 0.78125 
L 77.34375 19.921875 
L 63.671875 19.921875 
L 63.671875 0.78125 
z
M 56.25 0.78125 
L 56.25 19.921875 
L 42.96875 19.921875 
L 42.96875 0.78125 
z
M 35.546875 0.78125 
L 35.546875 19.921875 
L 22.265625 19.921875 
L 22.265625 0.78125 
z
" id="SimHei-5b5f"/>
       <path d="M 32.421875 0.390625 
Q 41.40625 0 43.75 0.96875 
Q 46.09375 1.953125 46.09375 5.859375 
L 46.09375 34.375 
L 18.359375 34.375 
Q 12.890625 34.375 5.46875 33.984375 
L 5.46875 41.015625 
Q 12.890625 40.625 18.359375 40.625 
L 46.09375 40.625 
Q 46.09375 46.875 45.703125 54.6875 
Q 51.171875 57.03125 56.828125 60.546875 
Q 62.5 64.0625 69.921875 68.75 
L 30.078125 68.75 
Q 21.875 68.75 15.625 68.359375 
L 15.625 75.390625 
Q 23.828125 75 29.296875 75 
L 84.375 75 
L 84.375 67.96875 
Q 78.515625 65.625 71.484375 61.71875 
Q 64.453125 57.8125 53.90625 50.78125 
L 53.90625 40.625 
L 80.078125 40.625 
Q 86.71875 40.625 94.921875 41.40625 
L 94.921875 34.375 
Q 86.71875 34.765625 80.078125 34.375 
L 53.90625 34.375 
L 53.90625 3.125 
Q 53.90625 -4.6875 49.40625 -6.25 
Q 44.921875 -7.8125 35.9375 -8.59375 
Q 35.15625 -4.296875 32.421875 0.390625 
z
" id="SimHei-5b50"/>
       <path d="M 55.46875 18.359375 
Q 69.53125 5.859375 94.140625 -0.390625 
Q 90.234375 -4.6875 88.671875 -9.765625 
Q 66.796875 -2.734375 48.828125 12.5 
Q 35.15625 0 10.546875 -9.765625 
Q 8.203125 -5.078125 5.46875 -1.5625 
Q 27.34375 3.90625 43.359375 17.96875 
Q 29.296875 33.984375 17.96875 67.96875 
Q 20.703125 67.96875 25.390625 71.09375 
Q 35.546875 39.0625 49.609375 24.21875 
Q 64.0625 41.015625 73.046875 73.046875 
Q 78.90625 70.3125 82.03125 69.53125 
Q 79.296875 62.890625 72.453125 46.671875 
Q 65.625 30.46875 55.46875 18.359375 
z
M 46.484375 80.859375 
Q 53.515625 67.96875 57.421875 57.03125 
Q 52.734375 55.46875 49.609375 53.90625 
Q 45.703125 65.234375 39.453125 77.34375 
Q 42.96875 78.515625 46.484375 80.859375 
z
" id="SimHei-4e49"/>
      </defs>
      <g transform="translate(7.2 50.510072)scale(0.1 -0.1)">
       <use xlink:href="#SimHei-5b5f"/>
       <use x="100" xlink:href="#SimHei-5b50"/>
       <use x="200" xlink:href="#SimHei-4e49"/>
      </g>
     </g>
    </g>
   </g>
   <g id="patch_13">
    <path d="M 44.2 445.58 
L 44.2 10.7 
" style="fill:none;stroke:#000000;stroke-linecap:square;stroke-linejoin:miter;stroke-width:0.8;"/>
   </g>
   <g id="patch_14">
    <path d="M 881.2 445.58 
L 881.2 10.7 
" style="fill:none;stroke:#000000;stroke-linecap:square;stroke-linejoin:miter;stroke-width:0.8;"/>
   </g>
   <g id="patch_15">
    <path d="M 44.2 445.58 
L 881.2 445.58 
" style="fill:none;stroke:#000000;stroke-linecap:square;stroke-linejoin:miter;stroke-width:0.8;"/>
   </g>
   <g id="patch_16">
    <path d="M 44.2 10.7 
L 881.2 10.7 
" style="fill:none;stroke:#000000;stroke-linecap:square;stroke-linejoin:miter;stroke-width:0.8;"/>
   </g>
  </g>
 </g>
 <defs>
  <clipPath id="pbdb27f575e">
   <rect height="434.88" width="837" x="44.2" y="10.7"/>
  </clipPath>
 </defs>
</svg>
